<?xml version="1.0" encoding="utf-8"?>
<!-- Generator: Adobe Illustrator 25.0.0, SVG Export Plug-In . SVG Version: 6.00 Build 0)  -->
<svg version="1.1" id="圖層_1" xmlns="http://www.w3.org/2000/svg" xmlns:xlink="http://www.w3.org/1999/xlink" x="0px" y="0px"
	 viewBox="0 0 400 250" style="enable-background:new 0 0 400 250;" xml:space="preserve">
<style type="text/css">
	.st0{fill:#6DC6D2;}
	.st1{fill:none;stroke:#000000;stroke-width:4;stroke-miterlimit:10;}
	.st2{fill:#F5B230;}
</style>
<g>
	<circle class="st0" cx="191" cy="118.7" r="59.5"/>
	<path class="st1" d="M258.9,162.1c12.7,12.7,12.7,33.2,0.1,46s-33.2,12.7-46,0.1s-22-69.5-22-69.5S246.2,149.5,258.9,162.1z"/>
	<path class="st1" d="M190.8,81.6c6.6,6.5,6.6,17.2,0,23.7c-6.5,6.6-17.2,6.6-23.7,0c-6.6-6.5-11.3-35.9-11.3-35.9
		S184.3,75,190.8,81.6z"/>
	<path class="st1" d="M163.7,151.8c4.6,4.6,4.6,12,0,16.6c-4.6,4.6-12,4.6-16.6,0c-4.6-4.6-7.9-25.1-7.9-25.1
		S159.1,147.2,163.7,151.8z"/>
</g>
</svg>
