<?xml version="1.0" encoding="utf-8"?>
<!-- Generator: Adobe Illustrator 25.0.0, SVG Export Plug-In . SVG Version: 6.00 Build 0)  -->
<svg version="1.1" id="圖層_1" xmlns="http://www.w3.org/2000/svg" xmlns:xlink="http://www.w3.org/1999/xlink" x="0px" y="0px"
	 viewBox="0 0 400 250" style="enable-background:new 0 0 400 250;" xml:space="preserve">
<style type="text/css">
	.st0{fill:#6DC6D2;}
	.st1{fill:none;stroke:#000000;stroke-width:4;stroke-miterlimit:10;}
	.st2{fill:#F5B230;}
</style>
<g>
	<circle class="st0" cx="143.8" cy="112.1" r="68.1"/>
	<path class="st1" d="M261.8,120.1c-8.2,0-15.6,3-21.3,7.8c-3.4-13.3-16-23.1-31-23.1c-5.5,0-10.6,1.3-15.1,3.6
		c-6.4-11.6-19.2-19.5-33.9-19.5c-21.1,0-38.2,16.2-38.4,36.2c-13.7,3.4-23.9,15.3-23.9,29.4c0,16.8,14.3,30.5,32,30.5
		c3.1,0,6.2-0.4,9-1.2c3.8,12.9,16.1,22.3,30.8,22.3c12.2,0,22.7-6.5,28.2-16c5.9,6.6,14.6,10.8,24.5,10.8
		c14.2,0,26.3-8.9,30.4-21.1c2.8,0.8,5.7,1.2,8.8,1.2c17.7,0,32-13.6,32-30.5S279.5,120.1,261.8,120.1z"/>
	<path d="M292.3,97.2c-8.2,0-15.6,3-21.3,7.8c-3.4-13.3-16-23.1-31-23.1c-5.5,0-10.6,1.3-15.1,3.6C218.4,73.9,205.6,66,190.9,66
		c-15.7,0-29.1,8.9-35.1,21.7c1-0.1,2.1-0.2,3.2-0.2c14.7,0,27.5,7.9,33.9,19.5c4.5-2.3,9.6-3.6,15.1-3.6c15,0,27.6,9.9,31,23.1
		c5.7-4.8,13.1-7.8,21.3-7.8c17.7,0,32,13.6,32,30.5c0,3.1-0.5,6-1.4,8.8c0.4,0,0.9,0,1.3,0c17.7,0,32-13.6,32-30.5
		S310,97.2,292.3,97.2z"/>
</g>
</svg>
