<?xml version="1.0" encoding="utf-8"?>
<!-- Generator: Adobe Illustrator 25.0.0, SVG Export Plug-In . SVG Version: 6.00 Build 0)  -->
<svg version="1.1"
	 id="twmap" xmlns:cc="http://creativecommons.org/ns#" xmlns:dc="http://purl.org/dc/elements/1.1/" xmlns:inkscape="http://www.inkscape.org/namespaces/inkscape" xmlns:rdf="http://www.w3.org/1999/02/22-rdf-syntax-ns#" xmlns:sodipodi="http://sodipodi.sourceforge.net/DTD/sodipodi-0.dtd" xmlns:svg="http://www.w3.org/2000/svg"
	 xmlns="http://www.w3.org/2000/svg" xmlns:xlink="http://www.w3.org/1999/xlink" x="0px" y="0px" viewBox="0 0 850 1200"
	 style="enable-background:new 0 0 850 1200;" xml:space="preserve">

<g id="penghuCountry" onclick="show('19')">
	<path id="path2464" class="st0" d="M98.7,599.5v1.4V599.5L98.7,599.5z"/>
	<path id="path2466" class="st0" d="M116.5,593.1l0.7-2.5l2-0.7l-0.9,1.4l-0.5,2.3L116.5,593.1L116.5,593.1z"/>
	<path id="path2468" class="st0" d="M125.3,586.1l2.3-0.4l-0.5,1.8L125.3,586.1L125.3,586.1z"/>
	<path id="path2470" class="st0" d="M82.8,633.8l-0.2,2.5l2.1-0.9L82.8,633.8L82.8,633.8z"/>
	<path id="path2472" class="st0" d="M86.5,640.1l-4.3,2.3l-1.6-0.7L81,644l5.4-0.4l4.1-2.5l-0.4-1.2l-2.5-0.4L86.5,640.1L86.5,640.1
		z"/>
	<path id="path2474" class="st0" d="M79.5,594.7l-0.6,1.2l-0.2,0.8l0.8,0.9L78,599l0.4,1.1l1.1,0.5l0.8,0.7l0.4,0.8l-0.9,0.4
		l-0.7,2.1l0.4,1.2l-1.2,0.4H77l-1.1,0.7l0.4,1l1.4,0.3l1.8,2.3v1.3l-0.5,1.1l-1,0.7l-0.7,0.9l-1,0.7l-1,0.3l-1.8-1.6l-1.2,0.4
		l-0.9,0.7l-0.6,1l-1.5,1.3l-0.6,0.9l0.9,0.5h1.3l0.6-0.8h4l0.7-0.6l0.9-0.4l2.6,0.4l1.2,0.5h1.3l1.2-0.5l-0.4-1.2l-0.7-0.9l-0.4-1
		l-0.1-1.2l1.5-1.4l-1.2-2.9l3.7-3.3l-0.4-0.9l-1-0.7l-0.2-1.2l0.6-2.1l-0.5-1.2l-0.6-0.8l-0.3-1.1l0.4-1l1-0.6h2.7l2.3-0.6l1-0.6
		l0.2-1.3l-0.7-0.6l-1.1,1L88,594l-1.2-0.6l-2.1-2.4l0.3-1.2l-0.4-1l-1.1,0.1l-0.8,0.7l-2.2,4.1L79.5,594.7L79.5,594.7L79.5,594.7z"
		/>
	<path id="path2476" class="st0" d="M94.4,584.3l-1,1l0.1,1.2l3,2.1l0.6,1.1l0.6-0.6l0.9-2.1l0.9-0.6l2.8,0.1l0.5,1.2v1.3l0.7,0.8
		l0.4,1l2.2,2.3l0.4,1.2l0.9,0.2l0.8-1l0.2-1.3l2.2-1.2l1.3-0.2l-0.1-1.2l-1.2-1.2l-0.5-0.8l0.8-1.4l-1.4-0.1l-1.7-3.1l-0.7-0.2
		l-0.8,0.5l-2.1-0.6l-0.3-1.1l-1.3-0.2l-1.2,0.5l-0.5,1.1l-1.3,0.3l-2.3-0.3l-1.1-0.5l-0.3-0.6L94.4,584.3L94.4,584.3L94.4,584.3z"
		/>
	<path id="path2478" class="st0" d="M106.6,595.7l-1.4,1.9l1.8,1.7h1.3l1-0.6l0.1-1.2l1.7-2.1l-0.8-0.5H109l-1.2,0.3L106.6,595.7
		L106.6,595.7z"/>
	<path id="path2480" class="st0" d="M109.9,599.6l-1.2,0.5l-0.4,1l0.4,1.1l1.1,0.5h1.3l1.2-0.3l0.4-1.2l-0.6-0.9l-1.2-0.6
		L109.9,599.6L109.9,599.6z"/>
	
		<path id="path2482" sodipodi:nodetypes="csssssssssssssssssssssssssssssssssssssssssssssssssssscsssscsssssssssssssssssssssssssssssssssssssssssssssssssssssssssssssssssssssssssscsssssssssssssssssssssssc" class="st0" d="
		M102.8,608.4l-2.9,2.5l-1.2,0.4h-1.3l0.6,1.2v1.3l-0.3,1.2l-1.8,1.5l-0.2,1.3l1,0.5l2.4-1.1l1-0.7l1.4,0.1l0.9,0.6l0.8,0.9
		l-2.7,2.9l-1.3,0.2l-2.7-0.4l1.5,1.7l2.1,0.9l1.6-0.2l1.2-0.7l4,0.1l0.8,1.1l0.4,1.2l-1.3,2.1l-0.2,0.7l1.2,0.8l-0.1,1l-1.1,1.1
		l-1.2-0.1l-0.8-0.7l-1.1-0.5l-1.3,0.2l-1.6,3.4l-1.5,1.6l0.6,1.1l2.6,0.3l1.4-0.2l1.8-0.6l1.5-0.1l1.6,1.8l1.2-0.3l0.2-1.2l1.1-1
		l0.1-1.2l0.4-1.2l-1.1-0.6l-0.2-1l0.9-1l0.6-1.2l4.5-3.5l1.2-0.2l2.2-2.8l0.4-1.1l1-0.8l6.2-0.2l1.9-0.9l0.8,0.6l0.3,1.3l0.6,1.2
		l1.1,0.7l1.2-0.3l1-0.5h1.4l0.5-0.8l-3.1-3.3l-0.8-2.9l0.4-1.1v-1.3L132,611l-2.4-2.6l-0.6-2.1l-0.7,0.8l-0.4,2.5l-1.2-0.2
		l-0.6-1.2l-0.8-0.9l0.4-0.8l0.7-0.5l-1.7-1.6l-1.2-0.4l-0.8,0.8l-1.7,3.1l-1-0.2l-0.9,0.3l-1.5,1.5l-0.3,1.1l-0.7,0.2l-0.1-4l1-2.1
		l-1.5,0.2l-0.8,0.5l-5.2,0.9l-0.8,0.6l0.1,1.2l0.7,1v1.3l-0.5,0.9l-1.2,0.4l-0.8,1v2.8l-0.7,0.8l-1.3-0.6l-1-0.9l0.2-1.8l-1.4-0.2
		l-0.2-1.2l0.7-1.2l0.1-0.8L102.8,608.4L102.8,608.4L102.8,608.4z"/>
	<path id="path2484" class="st0" d="M92.6,621.2l-0.5,1.3l-1,0.4l-0.4,1.2l0.1,2.6l1.5,0.7l0.4,0.7l0.9,0.8L94,628l-0.7-0.9l1.2-1.1
		l-0.7-0.8l-0.3-2.9l-0.9-0.7"/>
	<path id="path2486" class="st0" d="M94.9,629.3v1.4l4.4,0.1l0.5-0.8l-0.7-0.9l-1.1-0.8l-0.5-0.8l-0.3,1L94.9,629.3L94.9,629.3
		L94.9,629.3z"/>
	<path id="path2488" class="st0" d="M110,557.8l-1.9,3.2l0.4,1.6l1.3,0.5l1.1-1.8l1.3-1l1.6,0.3l1.3-0.6l1.1-1.1L112,556l-1,0.1
		L110,557.8L110,557.8L110,557.8z"/>
	<path id="path2490" class="st0" d="M22.9,667.3l-1.4,3.2l1.4,0.9l1.6-0.4l1.4-0.9v-1.3l-2.3-1.8L22.9,667.3L22.9,667.3z"/>
	<path id="path2492" class="st0" d="M74.4,672.4l0.9,1.9v8.7l-0.4,1.6l-1.5,0.6l0.9,1.3l5.6,0.1l0.4-0.9l-0.6-1.4l0.6-1.3l1.6-0.5
		l1.3,1.4l1.3,0.9l1.5-0.5l0.9-1h1.9l1.1-0.8l-0.5-1.6l-0.8-1.3l-1.6,0.6l-2,2.3l-4.5-2.7l-0.5-1.4v-3.8l-1,0.3l-1.9-0.1L74.4,672.4
		L74.4,672.4L74.4,672.4z"/>
	<path id="path2494" class="st0" d="M84.4,712.8l0.3,1.9l1.6,0.1l-1-1.4L84.4,712.8L84.4,712.8z"/>
	<path id="path2496" class="st0" d="M87.9,715.6l-0.5,2l-1,1.4l1.6-0.5l1.8-2.3L87.9,715.6L87.9,715.6z"/>
	<path id="path2498" class="st0" d="M127.4,717.1l-0.9,1.9l0.8,1.1v1.4l1.1,1.1l0.8-0.1v-1.9l1.3-1.4l0.6-1.3l-1-0.9l-1.9-0.1
		L127.4,717.1L127.4,717.1L127.4,717.1z"/>
	<path id="path2500" class="st0" d="M55.9,729.8l-3.2,1.1l-0.4,1.5l0.4,1.8l1.1,0.9v1.9l1.8,2.4l0.6,0.3l0.1-1.8l1.5-1l1.5-0.4
		l0.4-3.7l1.3-1.1l-2.5-2L55.9,729.8L55.9,729.8L55.9,729.8z"/>
</g>
<path id="chiayiCountry" onclick="show('0')" sodipodi:nodetypes="cssssssssssssssssssssssssssssssssssc" class="st1" d="M345.2,641.8l0.5,3.3l3,3
	l-2,4.5l10.1,1.5l1,2.8l2,2.8l2.5,1.3l2.5-1.5l1.3-2.5l4.5-3.5l2,1.8l4.5,1.5l0.8-2.5l3.5-4.3l-2-2l-0.8-3l-3-0.8l-1.3-2.5l-2.3-1.5
	l-2.8,1l-2-1.8l-1.8-2.5l-2.5-1.3l-3,0.8l-7.1,5.1l-3-0.8L345.2,641.8L345.2,641.8L345.2,641.8z"/>
<path id="taichungCity" onclick="show('11')" class="st1" d="M417.7,334l-1.8,0.4l-0.2,2.3l-9.1,12.6l-1.9,4.7l0.2,3.8l-0.1,0.5l-1.2,1.6l-0.5,1.4
	l-2.8,1.2l-1,1.8l-4.7,3.2l0.1,1.4l0.5,1.2l0.1,2.1l-0.9,1l-2.4-0.8l2.8,1.3l0.5,1.2l-1,1.4l-0.9,0.8l-2.2-2.9l-0.9,0.5l-1.1,1.2
	l-2.2,1.2l0.1,1.8l-0.8,1.3l-2.8,1.6l-0.9,1.4l4.2,5.7l-0.1,1.6l-0.9,1.3l-0.4,1.5l-1-1.9l0.2-1.6l-1.5,1.6l-1.5-0.1l-0.4-1.9
	l0.9-1.8l-0.1-1.8l-1.2,1.2l-2.2,6.4l1.6,1.3l0.6,1.4l0.6,0.5l0.1-0.2l1.8,1.1v1.9l-0.6,1.5l-3.9,5.7l-1.2,0.9l-1.5,3.8l0.1,2l4.4,2
	l2.2,3.4l0.3,2.3l1.1,2.7l0.4,2.7l3.2,3.4l-1.2,1.6l-0.2,2.5l1.2,1.6l1.8,1.2h0.5l1.4,2.3l2,0.9l1.6,1.2l2.2,0.5l1.9,1.1l10.2,2.3
	h2.5l1.6,1.2l0.3,0.9v5.4l1.6,2.1l1.8,1.4v2.8l-0.9,2l1.4,7l2.5,0.2l1.6,1.4l3.6-0.4l1.1-0.7l5.7,4.8l8.9,3.2l2.2-0.6h5.3l2.5,0.6
	l1.8,1.6l2.2-0.2l4.3-1.4l6.4-6.9l3.8-9.8l3.2-3.2l4.4-1.2l1.2-1.6l-0.3-6.6l3.8-7.5l1.6-1.1l2.3,0.7l1.1,1.6l4.7,0.9l1.6,1.4v5.3
	l1.1,0.6l0.7-1.6l1.4-1.2l0.9-1.8l1.1-4.3l1.6,1.4l0.4,0.5l2.8,1.4l2.5,0.4l2.5-0.5l6.1-5.2l2.3-0.3l1.4,1.2l2.3,0.5l5.2-0.2
	l1.8-1.1l2.7-2.7l2-6.2l1.4-1.4l2.5-0.5l4.3,0.5l1.6-1.1h4.1l3.9-2l1.2-2l2-1.2l1.2-1.6l1.8-1.1l1.2-2l0.6-2.2l1.8-0.9l10.5-0.2
	l1.4-1.2l1.2-2l0.7-2l2.5-0.2l1.2-1.6l1.6-1.1l2,0.9l1.2,1.4l4.3,1.2l0.9-1.8l1.8-1.1h2.7l4.1-1.8l1.6,1.1l2.5,0.9l2-0.7l1.2-2.1
	l0.5-2.2l2.3-3.8h0.9l3.2,2.3l1.1,1.6l4.7,1.1h2.7l1.1-1.6l4.8,0.5l1.2,1.2l6.4,1.8l1.8-1.4l0.9-1.8l-0.2-2.5l3.8-1.6l1.1-1.6
	l2.7,0.2l1.4-1.2l0.6-2.3l-0.9-4.7l1.2-2l2.3-0.9l1.6-1.1l1.8-4.1l1.4-1.6h2.7l1.8-1.2l1.4-1.8l2.2-4.3l0.7-7.3l0.9-2l2.3-1.2
	l1.2-1.4l-1.2-2.1l-1.6-1.1l-1.1-1.8l-2.2-1.1l-7.1,0.9l-1.8,0.9l-2.3,0.3l-1.6,1.2l-1.2,1.6l-2.7,0.4l-1.8-0.9l-4.1-7H631l-2-0.7
	l-2.7-2.7l0.9-7.2l-0.5-2.1l-0.9-1.8l-1.2-1.4l-0.4-0.2l-1.7,0.9l-0.7,1.4l-1.2,0.8l-5.8-0.1l-1.2,0.7l-6.5-0.2L607,338l-1.8,0.9
	l-2,1.6l-1.4,1.8l-0.2,2.5l-3.4,5.5v2.7l-2.2,0.6h-2.7l-1.8-2.5l0.9-1.4l-2.7-1.1l-2,0.9l-0.7,2.2l-1.2,1.8l-2.3,0.7l-4.8,6.8
	l-2,0.7h-5.3l-1.8,1.2l-0.7,2l-0.7,0.2l-2,2.2l-0.4,2.5l-2.1,0.5l-3.4,2.8l-2.1,0.6l-5-0.6l-4.5,1.6l-5.4,6.8l-2.7,0.2l-2-1.1
	l-3.2-3l-0.4-2.5l-1.8-1.2l-2.7-3.9l-1.6,0.3h-2.7l-1.9-0.9l-5-0.3l-6.1-2.2l-4.8-0.2l-2.2,0.9l-1.4,1.4v2.7l0.9,2l0.4,5l-0.9,1.9
	l-1.8,1.4l-2.2,0.7l-10.3-0.3l-2,0.9h-5.3l-5.2-1.6l-3.2-3l-1.1-2l-1.6-1.2l-11.2-2.2l-3.4-2.8l-2.5-0.7l-1.4-2l-3.6-2l-1.4-1.6
	l-2.1-0.7l-1.2-1.6l-0.9-0.4l-3-0.3l-1.2-1.8l-3.2-2.2l-7.5-9.7h-0.3l-0.9-1.8l-4.5-1.8l-2.3-3.8l-0.4-2L417.7,334z"/>
<path id="keelungCity" onclick="show('18')" sodipodi:nodetypes="ccssssssssscssssssssssssssssssssssssssscssssssssssssssssssssssssssscssssssssssssssssssssssscsss" class="st1" d="
	M769,108.5l0.1-1.2l-1.1-1.1l0.5-3.4l-1.8,0.1l-2.4,1.5l-2.2-2l-1.9-0.2l-0.9-0.6v-2.1l-1.6-0.4l-0.8,1.4l-1.5,0.4l-0.4-1.5h-1.3
	l0.5,1.5l1.4,2l-1.8,2.2l-2.8,2l-1.2,0.1l2.3-2.2l-0.8-1.4v-3.2l-1.5-0.1l-1.4-0.8l-1.8-0.2l-2-2h-3.9l-1.1-0.8l0.3-1.4l-0.4-0.9
	l-1.8,1.2l-2,0.7l-1.1,1.6l-2.3,0.5l-1.2,1.6l-4.1,1.8l-2.5,0.2l-2,0.7l-1.8,1.2l-4.8,0.5v2.7l1.1,2l2.3,0.7l1.4,1.6l0.2,2.5l3,6.8
	l2.3,1.6l1.6,2.1l2.3,0.5l1.4-1.2v2l1.6,1.8l7,1.8l5.4,4.6l5.2,0.4l4.6-2.3l2.5-0.2l1.1-1.8l0.7-2.1l-4.6-4.5v-4.8l-0.5-2.1l2.3-0.5
	l2.9-3l2.5,0.5l1.8,1.2l0.9,0.2l1.8-2.9l1.4-1.4L769,108.5L769,108.5L769,108.5z"/>
<path id="pingtungCountry" onclick="show('17')"sodipodi:nodetypes="csssssssssscssssscssssssssssscssscsssssssscssssssssssssssssscssssscssssssscscsssssssssssssssssssssssccssssssssssssssssssssssscssssssssscssscssssssssscsssssssssssscsssssssssscsssssssssscsssssssssssssssssssssssssssssssscssssssssscsssssssssssssssssscsssssssssssssssssscsssssssssscssssssssssssscssssssssssssssscsssssssssssssssssssssssssssssssssssscsssssssssssssssssssscsssssssssssssssssssssssssssssssssssssscsssssssssssssssssssssssssssssssssssssssssssssssssssssssssssssssssssssssssscsssssssc" class="st1" d="
	M497.3,1052.1l-3,1l-2,1.8l-3.3,1.3l-2.8-4.8l-3-0.8h-4l-1.3-2.8l-2.8-1l-2.3-1.5l-4.3,0.3l-0.5-2.3l0.8-3.3l1.8-1l-2.8-1l-1-2.5
	l-4.8-2.8l1.8-2.3l2.5-1.3l-0.3-7.6l-2.5-1.5l-1.3-2.5h-2.8l-3.8-4l-3.5-1.8l4.8-14.6l6.6-1l1.3-2.8L464,990l-2.8-2l-2.5-5.3l-4-2.5
	l-0.3-3l-1-3l4.3-3.3V967l-4-8.1l-0.5-4.3l-1.8-1l-1-3l0.5-3.5l2.8-5.1l-1.3-2.8l1.5-2.3l1-2.8l-0.3-3.5l1-2.5l2-2l0.8-3l1.8-2
	l0.3-1l4-5.6l0.3-3.5l1.8-2.3l0.3-2.5l3.3,0.5l3.5-1.8l6.1-1.3l3-6.3l11.1-0.5l2-2.3l0.3-3.5l1.8-2l0.5-9.9l2-2l-1-2.3V871l-1-3.3
	l-2.5-1.3l-3.3-0.3l-2.8-2.5l-0.8-1.5l-1-8.3l-3.8-2.5l-2.3,0.8l-0.3-1.3l-2.5-1.3l-1-0.3h-3.3l-1.5,2.3l-5.1,2.5l-1.8,2.3l-2.8,1.5
	l-2.8-1.5l-6.3-7.6l-8.6-5.3h-3.8l-3,0.8l-3.3,4.8l-3,0.8l-1,1h-2.8l-2.8-1.3v-3.8l-1.8-2l-3-1.3l-3,0.8l-2.8,2l-3.5,0.3l-6.6,4.5
	l-1.3,0.5l-4,3.3l-0.3,1.3l-2.5,3.3l-2.3,1.8l-3.5,0.3l-6.1-1.5l-2.8,1.3H379l-1.5-2.3l-4.5-0.3l-1.8-0.8l-2.5,1.3l-1.5,9.8
	l-1.3,2.5l-0.5,3.3l-1.3,2.8l0.3,15.2l-0.8,1.3l0.3,4.5l-1.8,6.8l-1.8,2.3l-2,6.1L358,931l3.5,4.3l-2.8,16.4l-1.3,2.8l-2.5,2.2
	l-0.2,1.8l-0.8,1.1l-0.1,3.8l-0.5,1.3l0.8,1.8l0.1,9.1l2.9,0.2l2,1.9l-0.1,1.8l-0.9,0.2l1.8,2.4l5,3.7l0.9,1.2l1.4,0.6l0.6,0.1h-0.2
	l0.2,0.4l3,1.3l1.2,1.2l1.5,1l2.9,1l1.1,1l1.5,0.8l1,0.9l1.7,0.8l1.1,1l9.6,5.2l1.1,1.4l1.7,0.5l10.8,8.7l0.9,1.3l2,5.4l-0.4,0.8
	l5.4,3.7l5.8,7.3l0.5,1.5v4.8l1.8,2.9l0.8,3.4l-0.1,1.8l-0.5,1.5l0.1,1.5l4,3.4l0.9,1.2l1.3,1l0.8,1.2l1,3.5l3.3,3.4l-0.9,1.8v1.9
	l0.4,1.8l1.2,1.2l1.6,4.9l0.1,5.6l1,3.3v1.9l0.7,1.2l0.5,2.2l1.2,1.1l0.8,1.2l0.3,1.8l1.4,1.4l0.2,3.6l0.8,1.2l-0.1,1.9l-0.8,1.2
	l-5.2,1.5l0.2,1.7l1.8,0.4l0.5,1.3l-0.1,0.6l0.4,1.6l0.6,1.3l-0.6,1.2l-0.9,1l-2.5,1.5l-0.2,1.6l1,1.2l-3.8,3.5v3.7l1.5,0.9v1.9
	l1.2,1.1l-0.4,1.5l3.9,3.4l0.4,1.4l1.3,1.3l0.8,1.2l0.5,2.5l-0.9,3l0.1,5.9l-1.1,2.7l0.9,1.1l1.8,0.2l0.9,3.3l1,1.7l3.9,0.4l1.5-2.4
	l1.1-0.9l0.2-1.7l-0.8-3.2l0.6-1.4l1.4-0.6l2-2.2l1.3-0.6h1.9l0.5,1.4l4.2,2.9l0.5,0.1l2.3-0.1l1.6,0.4l0.6,1.3l1.5,0.4l1.4,0.9
	l1.9,0.6l1.9,0.1l3.8,3.8l0.1,1.8l1.9,0.6l0.9,0.8l0.6,1.2l0.1,1.8l2.7,2.5h1.9l1.3-0.9l-0.2-1.7l-1-0.9l-0.4-1.6l0.1-1.8l-0.5-1.4
	l-4.9-7.5v-7.3l0.5-1.4l-0.6-1.4l0.5-3l1-0.4l0.1-1.7l3.4-0.5l1.7-0.6l0.6-1.2l1.5-0.4l1.3-1l0.5-1.5l0.1-1.8l0.9-1l1.8-0.1l0.4-3.4
	l3.7-2.4l0.4-1.4l-2-2.5l-0.1-9.3l-1.2-1.7v-1.9l2.7-4.5l1-1.1v-1.5l-1.5-0.6l-2-2.2l-0.6-1.6l-0.2-4.8l0.2-0.7l0.9-0.1l0.5-0.6
	l0.7-0.5l0.3-0.7l-0.9-1.4l0.1-3.7l-0.8-1.3l0.2-0.6l0.5-0.6l0.3-0.6l0.2-0.8l-0.2-0.8v-1.9l-0.3-1l-0.4-0.6l0.1-1.1l-0.6-0.8
	l-0.3-0.8l0.2-1.6l1.4-1.2l0.4-0.6l0.2-0.7l0.1-1.8l-0.2-0.8v-0.7l0.2-0.5l-0.9-1l0.8-3.3l1-1.1l0.5-1.4l-1-1.2l-0.2-0.9"/>
<path id="taipeiCity"  onclick="show('5')" class="st1" d="M672.2,103.4l-1.2,2.7l-1.2,1.2l-0.4,0.7l-1.2,1.4v2.7l-1.8,1.1l-0.4,2.3l0.7,2.3l1.8,1.2
	l5.7,0.7l3.6,3.4l1.4,2.7l0.2,8.2l-2.7,3.8l-1.8,1.6l-0.9,2l0.5,5.2l1.1,2.1l2.1-0.2l2-1.1l1.2-1.8l1.2-0.2l2.9,1.2l1.6,1.2l0.7,2
	v2.7l1.2,2.1l2.3,1.6l2.5,0.2l1.1,4.3l3.8,2.5l10,1.1l2.1-0.9h2.9l0.2-1.8l-4.8-2.3l-0.4-2.5l0.2-2.1l-1.2-4.1v-2.3l1.2-2l1.8-1.1
	l5,0.4l1.6-1.1l2.1-0.5l6.8,0.4l0.5-1.4l-1.6-0.7l-2.3,0.7l-3.9-1.8l-4.8-3.6l-0.9-2l1.2-1.6l-0.4-2l-1.4-1.4l1.1-1.2l2.3-4.8
	L715,120l-7.7-6.6l0.5-2.3l1.4-1.6l-0.5-1.8l-2.9-2.5l-1.1-1.6l-0.2-5.2l-2.9-2.9v-2.7l0.7-2v-2.7l-4.6,0.4l-2-3.6l-1.4-1.6
	l-2.5,3.9l-2,0.9l-0.9,2l-3.8,2.1l-0.9,2.3l-1.6,1.1l-2.5,0.2l-2,0.9l-3,3.6l-0.9,2.3L672.2,103.4L672.2,103.4L672.2,103.4z"/>
<path id="new_taipeiCity" onclick="show('1')" class="st1" d="M826.6,145.3l-1.4,0.1l-1.1,1l-1.2-2.2l-1.4-0.5l-0.9-1l-1.5-0.3l-1.8,0.1
	l-0.8,0.8l-1.7,1.1l-4-0.4l-4.9-4l-0.4-1.4v-5.7l-0.6-0.8l1.4-1l-0.2-0.6l-4.2-4.2l-1.3-3l1.5-4.5l1.5-1l0.4-1.5l-0.6-1.2l-1-0.9
	l-0.6-0.9l0.8-1.2l1.2-0.8v-1.9l-1.8-0.1l-1.7,0.4l-1,1l-3.4,1.2H794l-5.9-1.3l-1.5,0.6l-1.4-0.6l-4.4-0.1l-2.9-0.9l-1.4,0.8
	l-1.3,1.2h-1.6l-1-1.2l0.4-1.6l0.8-1.3l0.6-0.6h-1.9l-1.6,0.6h-1.8v1.2l-0.9,2.1l-1.4,1.4l-1.8,2.9l-0.9-0.2l-1.8-1.2l-2.5-0.5
	l-2.9,3l-2.3,0.5l0.5,2.1v4.8l4.6,4.5L759,130l-1.1,1.8l-2.5,0.2l-4.6,2.3l-5.2-0.4l-5.4-4.6l-7-1.8l-1.6-1.8v-2l-1.4,1.2l-2.3-0.5
	l-1.6-2.1l-2.3-1.6l-3-6.8l-0.2-2.5l-1.4-1.6l-2.3-0.7l-1.1-2v-2.7l4.8-0.5l1.8-1.2l2-0.7l2.5-0.2l4.1-1.8l1.2-1.6l2.3-0.5l1.1-1.6
	l2-0.7l1.5-1.1l-2.9-2.1l-1.5-0.5l-1.6-1.1l-0.5-1.3l0.7-1.5l2.9-1.4l-0.3-0.8l-1.1-1l1-1.1l1.4-0.8l1.2-1.1l-0.4-1.1l-4.5,3.9
	l-6.3,0.4l-4.9-5.1l-0.2-1.2l1.2-1.3l-0.6-1.2h-2l-1.4-0.6l-2-2l0.5-3.8l-0.4-1.8l-0.7-1.2l-1.1-1l-3.7-5.2l-3.2-1l-1.8-2.3
	l-1.4-0.8h-1.9l-1.4-0.9l-1-1.1l-1.2-0.8l-0.4-0.1l-1.3,0.2l-1,1.1l-0.5,1.5h-6.1l-1.9-2l-1.1,0.8V57l-1.1,0.8l-5.1,0.8l-0.6-1.6
	l-0.6,0.6l-0.2,1.8l-1.4,1.1l-3.4,0.9l-1.4,1l-1.7,0.5l-3.5,7.4l-0.6,0.1l-3.7-0.5l-1.2,1l-0.1,1.8l-1,1.1l-0.4,1.5l-1.3,2.5
	l-0.2,1.9l-0.9,1.3l-1.3,0.8l-2.1,2.2l-0.2,1.9l-2,3.9l-1.9,0.5l-1.1-0.1l0.2,1.1l3.4,3.2l1.9,0.1l3.5,1.7l1.5,2.6l1.4,1l1,1.2
	l2.2,4.4l0.2,7.6l-0.9,0.8l-0.2-1.6l-0.8-1.7l-0.2-1.6l-2-2.7l-0.1-1.8l-0.7-1.8l-2.2-2.3l-5.8-3.8H651l-1.1,1l-0.6,2.4l-3.7,3.5
	L644,104l-2.8,1.7l-1.5,0.4l-4.2,2.8l-5.2,1.6l-1.3,0.9l-12,0.1l-2.4,2.3l-1,1.4l1.8,2.5l1.2,0.4l1.2,1.6l5,0.5l9.3,4.5l-0.5,3.6
	l2,1.8l5.2,1.2h5.4l1.2,0.9l1.8,2.1l0.5,2.3v0.7l-0.9,1.8l0.4,2.3l1.2,1.4l2.3,1.6l-0.9,1.6l-2,1.2l-2,0.7l2.1,1.6l0.2,2.1l-1.6,1.1
	l-2.1,0.7l-2,3.6l-2.9,2l-11.2-0.4l-1.8,0.9l-0.5,2.1l1.1,2l-0.5,5l-1.4,1.4l-0.9,2l1.2,2.3l2.1,0.2l1.6,1.2l-2.1,1.4l-1.2,1.4
	l-0.9,2l0.9,4.3l4.5,2.7l3.4,5.2l-1.2,1.6l0.4,2.1l0.2,0.2l2.5,1.6l-1.6,1.2l-4.6,0.9l-0.2,2.1l2.5,0.4l1.6-1.2l1.6,1.6l1.8,1.1
	l2.9,0.7l2.7-0.2l2-1.1l5.4-0.4l1.2,0.7l0.4,0.9l1.4,1.4l0.7,2l2.9,2.9l1.6,0.9l1.6,1.8l0.2,2.5l0.9,2.5l2.3,0.7v2.7l-1.6,1.1
	l-1.1,1.6l-3.2,2.7l-1.1,2l0.4,2.3l0.9,1.8v1.1l2,5l3.2,3l-0.5,2l2.5,1.1l0.2,1.8l2.5,0.7l1.4,2l2,1.4l0.5,5l1.5,0.6l4.8,0.3
	l2.3-1.4l4.6-0.7l5.2-3.4l0.5-2.5l5.9-3.2l2.7-0.2l2.1-0.7l1.1-1.6l1.6-1.2l2.3-0.4l1.4-4.3v-2.7l-0.7-2.1L705,232l-0.4-2.5l2-1.6
	l0.4-2.3l-0.2-2.5l0.9-2l2.1-0.5l1.8-1.1l2.5,0.7l2.3-1.8l0.5-2.1l-1.4-1.2l10.5-1.2l3.6-1.8l1.6,1.8l0.7-2l2.1-0.7l1.1-1.8l1.8-1.6
	l0.5-1.7l4.8-2.6l2.7-3.2l2-1.1l2.3-0.4l7.5,1.1l1.8-0.9l2.5-0.5l-0.2-1.2l0.2-2.1l1.4-1.8l0.2-2.1l-0.5-2.3l2.5-3.2l3-2.5l2.3-0.4
	l5.4,0.4l5.9-3.9l1.4-4.3l-4.1-5.9l0.9-1.8l0.5-2.1l1.8-1.4l5.2,0.4l2.3,0.9h2.9l1.4-1.6l6.8-4.8l5.4-0.4l6.2-2.3l2.5-0.2l3.7,0.7
	l0,0l1.1-0.5l0.8-1.5l1.8-0.1l0.8-1.1l2.8-1.3l0.8-1.3l1.9-0.2l0.7-1.4l0.1-1.5L826.6,145.3z M725.8,144.4L719,144l-2.1,0.5
	l-1.6,1.1l-5-0.4l-1.8,1.1l-1.2,2v2.3l1.2,4.1l-0.2,2.1l0.4,2.5l4.8,2.3l-0.2,1.8h-2.9l-2.1,0.9l-10-1.1l-3.8-2.5l-1.1-4.3l-2.5-0.2
	l-2.3-1.6l-1.2-2.1v-2.7l-0.7-2l-1.6-1.2l-2.9-1.2l-1.2,0.2l-1.2,1.8l-2,1.1l-2.1,0.2l-1.1-2.1l-0.5-5.2l0.9-2l1.8-1.6l2.7-3.7
	l-0.2-8.2l-1.4-2.7l-3.6-3.4l-5.7-0.7l-1.8-1.2l-0.7-2.3l0.4-2.3l1.8-1.1v-2.7l1.2-1.4l0.4-0.7l1.2-1.2l1.2-2.7l0,0l2.3-0.7l0.9-2.3
	l3-3.6l2-0.9l2.5-0.2l1.6-1.1l0.9-2.3l3.8-2.1l0.9-2l2-0.9l2.5-3.9l1.4,1.6l2,3.6l4.6-0.4V91l-0.7,2v2.7l2.9,2.9l0.2,5.2l1.1,1.6
	l2.9,2.5l0.5,1.8l-1.4,1.6l-0.5,2.3l7.7,6.6l0.5,4.6l-2.3,4.8l-1.1,1.2l1.4,1.4l0.4,2l-1.2,1.6l0.9,2l4.8,3.6l3.9,1.8l2.3-0.7
	l1.6,0.7L725.8,144.4z"/>
<path id="yilanCountry" onclick="show('7')" sodipodi:nodetypes="csssssssssssssssssssssssscsssssscsssssssssssssscsssssssssssssssssscsssssssssssssssssssssssssssscsssssssssssssssssssssssssssssssssssssscsssscsssssssssssssssssssssssssssssssssssssssssssssssssssssssssssssssssssssssssssssssssssscsssssssssssscssssssssssssscsssssssssssscssssssssssssssscsssssssssssssssssssssssssssssssssssscssssssssssssssssssssssssscssssssssssssssssssssssssscssssssssssssssscssssssssssssssssssssssssssssssc" class="st1" d="
	M671.9,257.7l-0.5,1.2l-1.6,0.5l-3.5,0.3l-1.3,0.8l-1.8,2.4l-0.6,5.1l-2.3,3l-0.4,1.5l-0.6,1.3l-0.4,1.5l-3.4,5.3l-0.3,1.6h-1.8
	l-1.4,0.6l-1.1,0.9l-0.4,0.7l-0.9,0.9l0.1,0.6l1.1,0.8l0.6,1.4l0.1,1.8l0.5,1.4l-1.3,1.1l-0.5,0.3l-0.5,0.8l-1.3,0.8l-1.4,1.5
	l-0.4,1.6l0.6,1.3l0.1,7.3l-0.8,1.8l-1.1,1.4l-1.4,1l-1.6,2.5L641,314l-0.5,1.3l-1.4-0.1l-3.4,4.9l-1.3,0.8l-1.9-0.4l-1.4,2.8
	l-1.4,0.8l-1.1,2.9l-0.9,1.1l-1.5,1.3l-1.3,2.5l0.1,1.6l-0.7,1l1.4,1.7l0.9,1.8l0.5,2.1l-0.9,7.1l2.7,2.7l2,0.7h4.8l4.1,7l1.8,0.9
	l2.7-0.4l1.2-1.6l1.6-1.2l2.3-0.4l1.8-0.9l7.1-0.9l2.1,1.1l1.1,1.8l1.6,1.1l1.3,2.1l12,7.7h8.1l3,1.3l4,0.5l8.1,5.6l8.3,1l3-0.8
	l-3-2.5l0.8-3l3.3-0.8l2.3-1.5l2.3,1l2-1.8l-0.8-1.5l-2-1.8l0.3-3.3l2-0.8l4.3,3.8l4.8,1.5l4.5,3.5l9.1,3.8l7.3,0.5l8.1,4l4.1,0.5
	l-0.2-4l-0.8-1.2l0.1-3.7l2.5-4.8l0.4-1.5l1.5-2.5l0.5-10.9l0.5-1.6l0.9-1.2v-2.1l1-3.5l1.8-2.4l0.5-1.8l2.7-1.6l1-1.2l1.3-2.6
	l0.1-1.8l4.5-4.3l4.6-1.9h1.9l0.5-0.2l-1.4-0.8l-1-1l-0.8-1.2v-1.9l-2.5-1.5l-0.5-4.9l1.8-1.1l0.9-1.3l3.3-0.6l2.8-1.8l1.7-0.4
	l0.5-1.7l-0.1-1.5l-0.6-1.8l-0.1-1.8l-0.8-1.1l-0.3-3.5l0.8-1.1l-0.9-1.4l0.7-1.5h1.9l-0.2-1.4l-1-0.9l-0.2-0.5l1.5-0.7l-1.2,0.3
	l-1.8-0.7l-0.1-1.2l-2.4-2.2l0.4-1.6l1.8-0.1l1.5,0.9l0.2,1.8l1.8-0.1l1.5-0.8l-3.7-3.7l-3-1l-0.4-0.8l-0.5-0.2l-1.6-2.2l-0.1-1.3
	l-3.7-9.1l-0.1-3.8l-0.8-1.1l0.4-0.6v-2l-0.5-1.7l0.5-10.2l-2.9-3.2l-0.9-1.5v-1.7l-1.4-1.6l-0.6-3.4l0.1-1.8l-1-1l0.5-14l0.7-2.2
	v-1.9l1.2-2.8l-0.2-3.7l1-3l0.1-1.8l2.4-5.2l0.2-1.8l1.3-2.2l1.5-0.8l1-2.9l0.9-1.1l1.4-0.5l3.8-4.4l1.3-0.6l3.2-3.7l0.2-3.5
	l0.5-1.5l2.8-1.6l1.5-0.4l1.5-2.2l1.2-0.9l1.2-0.6l2.5-3.5l0.3-1.9l1.8-1l1.8-0.2l1.2-0.5l1.1-1.1l1.7-0.2l1.2-0.8l1.9-0.1l2.7-1.2
	l-3.6-0.7l-2.5,0.2l-6.2,2.3l-5.4,0.4l-6.8,4.8l-1.4,1.6H789l-2.3-0.9l-5.2-0.4l-1.8,1.4l-0.5,2.1l-0.9,1.8l4.1,5.9l-1.4,4.3
	l-5.9,3.9l-5.4-0.4l-2.3,0.4l-3,2.5l-2.5,3.2l0.5,2.3l-0.2,2.1l-1.4,1.8l-0.2,2.1l0.2,1.2l-2.5,0.5l-1.8,0.9l-7.5-1.1l-2.3,0.4
	l-2,1.1l-2.7,3.2l-4.8,2.6l-0.5,1.7l-1.8,1.6l-1.1,1.8l-2.1,0.7l-0.7,2l-1.6-1.8l-3.6,1.8l-10.5,1.2l1.4,1.2l-0.5,2.1l-2.3,1.8
	l-2.5-0.7l-1.8,1.1l-2.1,0.5l-0.9,2l0.2,2.5l-0.4,2.3l-2,1.6l0.4,2.5l1.4,1.4l0.7,2.1v2.7l-1.4,4.3l-2.3,0.4l-1.6,1.2l-1.1,1.6
	l-2.1,0.7l-2.7,0.2l-5.9,3.2l-0.5,2.5l-5.2,3.4l-4.6,0.7L677,258L671.9,257.7L671.9,257.7L671.9,257.7z"/>
<path id="taoyuanCity" onclick="show('13')" sodipodi:nodetypes="csssssssssssssssssssssssscssssssssssssssssscssssssssssscssssssssssssssssssssssssssssssssssscssssssssssssssssscssssssssssssssscsssssssssssssssssssssssssssscssscssssssssssssssssssssssssssssssssscssssssssssssssssssssssssssssscsssscssssssssssssssssscssssssssssssssssscsssssssssssssssssscssssssssssssssssssssssscsssssssssssssssssssssssssssssssc" class="st1" d="
	M672,257.7l-0.5,1.2l-1.6,0.5l-3.5,0.3l-1.3,0.8l-1.8,2.4l-0.6,5.1l-2.3,3l-0.4,1.5l-0.6,1.3l-0.4,1.5l-3.4,5.3l-0.3,1.6h-1.8
	l-1.4,0.6l-1.1,0.9l-1.5,1.9l-0.8,0.5l-1.8,0.4l-3.7-0.5l-1.5-0.9l-1.3-1.9h-0.9l-0.8-1l-0.5-1.5l-1.4-0.5v-3.9l0.8-1.4l0.4-1.8
	l-1.5-0.8l-1.6-0.3l-1.3-0.8l-0.1-3.8l1-1l0.1-1.9l0.5-1.5l-0.3-1.9l-1.6-0.8h-1.9l-0.6-1.3l-0.3-1.8l-0.8-1.3l-1.1-0.9l-2.3-2.9
	l-2.9-1.4l-3,1l-1.4-0.5v-3.8l1.1-1.1l0.6-1.3v-3.8l-2.1-0.4l0.1-4.4l0.5-1.4l0.9-1.3l0.4-1.6l-1.3-1.3l-0.6-1.5l-1.8-0.4l-1.3-1.3
	l-1.4-0.5l-1.8-0.1l-0.5-0.8h-0.3l-1.6-0.9l-1-1.3l-1.5-0.9l-0.4-0.6l-0.1-1.1l-0.9-2.4l-1.5-0.6l-2.1-0.4v-1.9l-1.5-0.5l-3.9,1.8
	h-1.6l-5.7-4.5l-1.4-0.6l-1.1-1.1l-2-0.8V209l-1.9-0.3l-1.8-0.6l-3.5-2.8l-0.6-0.9l-3-1.9l0.4-1.6l1.8-2.8l-0.5-5.6l-1.4-1l-11.7-1
	l-0.8-1.5l-0.3-1.9l1-0.9l-1.4-0.8l-1.3,0.9l-1.6,0.6l-1.9,0.1l-1.6-1.3l-2-0.6h-1.9l-1.3-1.4l-3-1.1l0.1-3.7l0.6-1.5l-1.1-3
	l-0.1-1.8l-1.8-0.1l-2.1-2.1l-3.7-0.3l-4.3,1.3l-2.3-1.5l-4.3,2.5l-3.1-0.8l0.5-0.8l1.2-1l3-4l0.6-1.4l1.3-1.3l1.2-0.8l1.8-1.9v-3.7
	l-0.9-1.2l0.1-1.8l3-3.8l1-2.9l1.1-0.9l2.4-3.5l4.7-4.1l3.9-1.8l1.6-0.2l1.2-1.2l1.5-0.5l2.5-1.6l1.2-1.4l1.7-1l1.8-0.5l2.8-2.2
	l1.5-0.6h2l12.1-3.2l1.5-1.3l3.5-1.6l3.7-3.7l1.7-1l2.1-0.1l8.3-3.4h1.9l1-1l3.5-0.8l1.5,0.5l2.5,2l2.4,0.1l0.8,1.9l1.2,1.4l1.2,0.4
	l1.2,1.6l5,0.5l9.3,4.5l-0.5,3.6l2,1.8l5.2,1.2h5.4l1.2,0.9l1.8,2.1l0.5,2.3v0.7l-0.9,1.8l0.4,2.3l1.2,1.4l2.3,1.6l-0.9,1.6l-2,1.2
	l-2,0.7l2.1,1.6l0.2,2.1l-1.6,1.1l-2.1,0.7l-2,3.6l-2.9,2l-11.2-0.4l-1.8,0.9l-0.5,2.1l1.1,2l-0.5,5l-1.4,1.4l-0.9,2l1.2,2.3
	l2.1,0.2l1.6,1.2l-2.1,1.4l-1.2,1.4l-0.9,2l0.9,4.3l4.5,2.7l3.4,5.2l-1.2,1.6l0.4,2.1l2.7,1.8l-1.6,1.2l-4.6,0.9L629,202l2.5,0.4
	l1.6-1.2l1.6,1.6l1.8,1.1l2.9,0.7l2.7-0.2l2-1.1l5.4-0.4l1.2,0.7l0.4,0.9l1.4,1.4l0.7,2l2.9,2.9l1.6,0.9l1.6,1.8l0.2,2.5l0.9,2.5
	l2.3,0.7v2.7l-1.6,1.1l-1.1,1.6l-3.2,2.7l-1.1,2l0.4,2.3l0.9,1.8v1.1l2,5l3.2,3l-0.5,2l2.5,1.1l0.2,1.8l2.5,0.7l1.4,2l2,1.4l0.5,5
	L672,257.7L672,257.7L672,257.7z"/>
<path id="hsinchuCity" onclick="show('4')" sodipodi:nodetypes="csssssssssssscsssssssssssssssscsssssssssssssssssscssssssssssssssssssscssssssscscsssssssssssssssssscc" class="st1" d="
	M494.2,237.9l0.2,1.1l1.3,0.6h2l1.4-0.5l1.1-0.9l1.4,0.5l1.9,2.3l0.5,1.6v1.5l4.9,1.3l0.7-0.5l2-2.4l0.4-3.7l1.3-2.9l1.6-0.4l1-1.5
	l1.5-0.6l1.1-0.9l0.5-1.5l0.9-1.4l5.4-1.3l-0.5-1.4l1.1-1.8l1.5-0.5h1.9l7.1,7.2l1.5-1V227l-3.3-11.1l-1.9-2.6l-3.4-2.9l-3.7-0.4
	l-0.1-0.6l-0.5-1l-1.4-0.9h-1.9l-7.7-1.9l-1.9-2.7l-0.5-1.4l-1.6-1.2l-1,0.8l-1.5,0.6l-5.1,7l-1.2,1.1l0.6,3l-0.2,1l0.5,0.5l1.9,0.1
	l0.2,1.6l-0.8,1.5L503,221l-0.8,1.1l-0.1,3.9l-1.9,2.5l-0.5,1.5l1.4,1.1l-0.8,1l-0.6,1.8l-2.3,2.2l-1.8,1L494.2,237.9L494.2,237.9
	L494.2,237.9z"/>
<path id="hsinchuCountry" onclick="show('3')"sodipodi:nodetypes="cssssssssssscssssssssssssssssssssssssssssssssssssssssssscsssssssssssscsssssssssssssssssssssssssssssssssssssssssssssssssssscsssssssssssssssscsssssssssssssssssscssssssssssssssssssscsssssssscssssssssssscssscsssssssssssssssssssssssssssscssssssssssssssscssssssssssssssssscssssssssssssssssssssssssssssssssssscssssssssssscssssssssssssssssscsssssscsssssssssssssscssssssssssssssssssc" class="st1" d="
	M624.1,334.4l-1.7,0.9l-0.6,1.4l-1.3,0.8l-5.8-0.1l-1.3,0.6l-5.7-0.1l-0.9-1l-0.1-2.1l0.3-1.3l-0.6-0.8v-3.8l-0.9-1.3l-1.5-0.9
	l-1.1-1.3l-0.6-1.5l-2.1-2.4l-0.6-1.5l-1.5-0.8l-0.8-1.1l-1.6-0.9L595,316l0.3-2.9l-1.1-1.5l-3.7-0.3l-1.5,0.5l-2.7,1.8H582
	l-1.4,0.8h-1.9l-1.3-1.1l-7.6-0.4l-1.4,0.5l-1.5-0.4H565l-2.1,1.9l-3.4,1.4l-3.4-0.8h-5.9v-2.1l-0.9-1.9v-2l0.8-1.5l2.1-2.3l0.5-1.5
	l-0.1-1.9l-1.5-2.9l-2.7-2.1l2-3.3l1.1-4.2l1.1-1.4l0.1-1.8l0.9-1.3l0.4-1.6l-1.4-0.8l-1.1-3.4l-1.9-0.5l-1.4-3.2l-0.9-0.4l-2,0.5
	l-1.5,0.9l-2.4-1.9l-0.9-1.5L539,273l-1.3-0.9l-2-3.2l-1.8-0.3l-1.8-0.8L532,266l-1.1-1.3l-1.8-0.3l-3.3-2.1l-0.9-1.5l-1.4-1.4
	l-1.6-2.9l-0.3-1.8l-2-0.8l0.4-1.3l0.9-1.4l0.3-1.6l1-1.3l-1.4-0.8l0.9-1.1l-3.5,0.3l-1.3,1l-1.5,0.6l-0.9-1.1h-2.9l-1.5-0.8l-1-1.2
	l2.5-3.1l0.4-3.7l1.3-2.9l1.6-0.4l1-1.5l1.5-0.6l1.1-0.9l0.5-1.5l0.9-1.4l5.4-1.3l-0.5-1.4l1.1-1.8l1.5-0.5h1.9l7.1,7.2l1.5-1v-3.8
	l-3.3-11.1l-1.9-2.6l-3.4-2.9l-3.7-0.4l-0.1-0.6l-0.5-1l-1.4-0.9h-1.9l-7.7-1.9l-1.9-2.7l-0.5-1.4l-1.6-1.3l0.6-1.5l2-2.5l0.5-1.8
	l1-0.9l0.6-3.4l5.6-6.9l-0.8-1.5l-0.4-1.9l5.5-7.9l3.1,0.8l4.3-2.5l2.3,1.5l4.3-1.3l3.7,0.3l2.1,2.1l1.8,0.1l0.1,1.8l1.1,3l-0.6,1.5
	l-0.1,3.7l3,1.1l1.3,1.4h1.9l2,0.6l1.6,1.3l1.9-0.1l1.6-0.6l1.3-0.9l1.4,0.8l-1,0.9l0.3,1.9l0.8,1.5l11.7,1l1.4,1l0.5,5.6l-1.8,2.8
	l-0.4,1.6l3,1.9l0.6,0.9l3.5,2.8l1.8,0.6l1.9,0.3v1.4l2,0.8l8.2,6.3h1.6l3.9-1.8l1.5,0.5v1.9l2.1,0.4l1.5,0.6l0.9,2.4l0.1,1.1
	l0.4,0.6l1.5,0.9l1,1.3l1.6,0.9h0.3l0.5,0.8l1.8,0.1l1.4,0.5l1.3,1.3l1.8,0.4l0.6,1.5l1.3,1.3l-0.4,1.6L619,235l-0.5,1.4l-0.1,4.4
	l2.1,0.4v3.8l-0.6,1.3l-1.1,1.1v3.8l1.4,0.5l3-1l2.9,1.4l2.3,2.9l1.1,0.9l0.8,1.3l0.3,1.8l0.6,1.3h1.9l1.6,0.8l0.3,1.9l-0.5,1.5
	l-0.1,1.9l-1,1l0.1,3.8l1.3,0.8l1.6,0.3l1.5,0.8l-0.4,1.8l-0.8,1.4v3.9l1.4,0.5l0.5,1.5l0.8,1h0.9l1.3,1.9l1.5,0.9l3.7,0.5l2.6-0.7
	l1.4,1l0.6,1.4l0.1,1.8l0.5,1.4l-1.3,1.1l-0.5,0.3l-0.5,0.8l-1.3,0.8l-1.4,1.5l-0.4,1.6l0.6,1.3l0.1,7.3l-0.8,1.8l-1.1,1.4l-1.4,1
	l-1.6,2.5L641,314l-0.5,1.3l-1.4-0.1l-3.4,4.9l-1.3,0.8l-1.9-0.4l-1.4,2.8l-1.4,0.8l-1.1,2.9l-0.9,1.1l-1.5,1.3l-1.3,2.5l-0.1,1.8
	L624.1,334.4"/>
<path id="miaoliCountry" onclick="show('8')"  class="st1" d="M510.1,246.8l1.5,0.8h2.9l0.9,1.1l1.5-0.6l1.3-1l3.5-0.3l-0.9,1.1l1.4,0.8l-1,1.3
	l-0.3,1.6L520,253l-0.4,1.3l2,0.8l0.3,1.8l1.6,2.9l1.4,1.4l0.9,1.5l3.3,2.1l1.8,0.3l1.1,1.3l0.1,1.8l1.8,0.8l1.8,0.3l2,3.2l1.3,0.9
	l1.6,0.4l0.9,1.5l2.4,1.9l1.5-0.9l2-0.5l0.9,0.4l1.4,3.2l1.9,0.5l1.1,3.4l1.4,0.8l-0.4,1.6l-0.9,1.3l-0.1,1.8l-1.1,1.4l-1.1,4.2
	l-2,3.3l2.7,2.1l1.5,2.9l0.1,1.9l-0.5,1.5l-2.1,2.3l-0.8,1.5v2l0.9,1.9v2.1h5.9l3.4,0.8l3.4-1.4l2.1-1.9h1.9l1.5,0.4l1.4-0.5
	l7.6,0.4l1.3,1.1h1.9l1.4-0.8h4.3l2.7-1.8l1.5-0.5l3.7,0.3l1.1,1.5L595,316l0.5,1.3l1.6,0.9l0.8,1.1l1.5,0.8l0.6,1.5l2.1,2.4
	l0.6,1.5l1.1,1.3l1.5,0.9l0.9,1.3v3.8l0.6,0.8l-0.3,1.3l0.1,3.9l-1.8,0.9l-2,1.6l-1.4,1.8l-0.2,2.5l-3.4,5.5v2.7l-2.1,0.5H593
	l-1.8-2.5l0.9-1.4l-2.7-1.1l-2,0.9l-0.7,2.1l-1.2,1.8l-2.3,0.7l-4.8,6.8l-2,0.7H571l-1.8,1.2l-0.7,2l-0.7,0.2l-2,2.1l-0.4,2.5
	l-2.1,0.5l-3.4,2.9l-2.1,0.5l-5-0.5l-4.5,1.6l-5.4,6.8l-2.7,0.2l-2-1.1l-3.2-3l-0.4-2.5l-1.8-1.2l-2.7-3.9l-1.6,0.4h-2.7l-2-0.9
	l-5-0.4l-6.1-2.1l-4.8-0.2l-2.1,0.9l-1.4,1.4v2.7l0.9,2l0.4,5l-0.9,2l-1.8,1.4l-2.1,0.7l-10.4-0.4l-2,0.9h-5.4l-5.2-1.6l-3.2-3
	l-1.1-2l-1.6-1.2l-11.2-2.1l-3.4-2.9l-2.5-0.7l-1.4-2l-3.6-2l-1.4-1.6l-2.1-0.7l-1.2-1.6l-0.9-0.4l-3-0.4l-1.2-1.8l-3.2-2.1
	l-7.5-9.6H429l-0.9-1.8l-4.5-1.8l-2.3-3.8l-0.4-2l-3.8-4.7l1.6-0.7l3.8-3.2l3-3.9l0.6-1.4l5.2-6.8l1.2-3.2l1.4-1.9l9.5-28.2l2.2-2.9
	l0.1-0.8l1.2-1.2l3.2-0.8l2.7,2.3l1.1,1.7l0.4-1.5l-0.4-2l2.7-1.6h1.4l1,0.2l-0.1-1.7l-1.7-0.8l-1.5-1.1l1-0.9l0.6-3.3l3-5.3
	l1.7-0.2l2-2.4l5.6-0.2l4.4-2h2.4l3.9,1.4l1,1l2.2,0.5l1.3-0.8l-0.8-1l-1.9-0.2l-1.5-0.7l-0.8-1.6l-1.8-0.2l0.1-1.8l1-1.1l1.5-0.8
	l5.5-4.7l0.5-1.6l0.9-1.2l0.4-1.5V244l1.2-2.8l1.3-1.1l0.9-1.3l1.9-0.8l0.5,1l1.3,0.6h2l1.4-0.5l1.1-0.9l1.4,0.5l1.9,2.3l0.5,1.6
	v1.5l4,1.1L510.1,246.8L510.1,246.8L510.1,246.8z"/>
<path id="changhuaCountry" onclick="show('20')" sodipodi:nodetypes="cssssssssssssssssssssssssssscsssssscssssssssssssssssssssssssssssssssscsssscsscssssssssssssscsssssssssscssssssssssssscsssssssscssssssssssssssssscsssssssssssssscsssssssssssssssscssssssssssssssscssssssssssssscssssssssssssssc" class="st1" d="
	M306.6,531.9l6.3,2.3l3.8,0.3l5.8,1.8l16.2-0.8l2.8-1l14.6,0.3l2.5-1.3l5.1,2.8l0.8,1.3l4.3,0.5l8.1,4l6.3,1.5l7.3-0.3l3-0.8
	l30.6,5.1l5.8-1.8l2-1.8l1.3-2.5v-3.3l-2-0.5l-2.5,1.3h-3.3l-2.5-1.3l-7.3-7.8l0.3-2.3l1.3-2.5l-1.8-2l1.5-2.5l0.5-3.3l1.3-2.5
	l1.3-9.6l-0.5-2.8l0.5-2.3l-1-5.6l1.5-2.3l2-1.8l1.3-2.5l0.3-3.5l-1.3-2.8l-1.8-2l-0.5-0.3l0.3-3.8h7.6l4-2.3l-5.8-4.8l-1.1,0.7
	l-3.6,0.4l-1.6-1.4l-2.5-0.2l-1.4-7l0.9-2V456l-1.8-1.4l-1.6-2.1v-5.4l-0.4-0.9l-1.6-1.2h-2.5l-7.5-2.1l-2.7-0.2l-2-1.1l-2.1-0.5
	l-1.6-1.2l-2-0.9l-1.4-2.3h-0.5l-1.8-1.2l-1.2-1.6l0.2-2.5l1.2-1.6l-3.2-3.4l-0.4-2.7l-1.1-2.7l-0.4-2.3l-2.1-3.4l-4.4-2l-1.5,0.4
	l0.5,1.5l0.7,0.9l-1.5,0.8l-3.2,4.2v0.1l-2.7,4.3l-1.2,0.8l-5.6,0.1l0.2,1.5l1.5,1.3l-0.1,3.7l-1,0.9l-0.6,1.4l-0.4,1.8l-0.9,1.2
	l-0.1,3.8l-0.1,0.4l-1,1.5v1.9l0.6,1.2l-0.2,1.9L358,450l-3,1.2l-0.8,1.8l-2.3,2.4l-0.2,3.5l-0.6,1.4l-2.7,0.5l-1.4,1.1l-1.6,0.2
	L343,464l-1.4,0.5l-0.4,1.6l-4.1,3l-0.8,3v2.2l-0.9,1.5l-0.2,1.6l-1.3,0.9l-0.6,3.3l-2.4,0.2l-1.9-0.4l-1.4,1.2l-1,4.9l0.4,1.2h3.8
	v0.9l-4.8,7.2l-0.2-0.1l-0.4,2l-0.9,1.1l-0.4,1.5l-1,1l-1.3,4.8l-2.1,2.4l-0.5,1.8l-1.9,2.5l-0.6,1.5l-0.9,1l-0.2,2.2l-1.2,0.7
	l-1.1,1l-1.4,0.8l-0.9,1.3l-1.4,0.8v1.4l0.9,1.3l-0.7,0.5h-1.9l-0.9,1.2l-0.3,3.7l-0.4,1"/>
<path id="yunlinCountry" onclick="show('9')"sodipodi:nodetypes="csssssssssssssssssscssssssssssssssscsssssscssssssssssssssssssssssssssscssssssssssssscsssssssssssssssssssscsssssssssssssssssssssssssssssssssssssssssssssssssssscssssssssssssssssssssssssssssssssssssssssssssssscssssssssssssssssssssssssssssssc" class="st1" d="
	M448.1,605.4v-3l-2.3-2l-3.3-0.5l-1,2.8l-2.8,0.5l-3.3-0.8l-0.8,3l-3,0.5l-3.5-0.3l-2.3-1.5l-1.5-2.8l-0.8-3l-4.8,3.5l-0.3-7.3
	l2-5.8l0.3-0.3l1.8-4l0.5-3.3l-0.3-3.5l-1.5-2.5l-0.3-7.3l0.8-3l2.8,0.5l0.5-7.1l-5.1-10.9l-20.7-3l-3.8-1.5l-2-0.3l-10.4,1
	l-14.4-5.6l-4.3-0.5l-0.8-1.3l-5.1-2.8l-2.5,1.3l-14.6-0.3l-7.6,2l-11.4-0.3l-5.8-1.8l-3.8-0.3l-6.4-2.2l-3.9,0.1l-1.2-0.7l-1.4-0.2
	l-0.5,1.5l-1.8,0.1l-6.1,10.8l-0.1,0.7l-2.2-0.1l-1.3,0.8l-2,2.4l-0.6,1.6l-0.2,3.8l-1,1.2l-0.2,1.6l1.7,2.4l-0.2,1.8l-1.7,2.4
	l-3.2,0.1l-0.4,1.5v1.9l-2.2,1.2v2.4l-0.1-0.1l-0.5,0.2l-0.4,1.6v1.9l0.5,1.4l1.9,0.1l1.4,2l-2.3,2.8l-1.4,2.8l-0.4,1.5l-1.9,3.2
	l-1,3.5l-1.3,1.9l-2.6,7.4l0.2,7.5l-0.4,1.5l0.1,1.4l1.8,0.9l-0.1,1.7L270,613l-2.2,1.6l0.5,2.2l1.1,0.6l1.5,0.2l0.1,1.9l-1,1.2v3.8
	l1.2,0.9l2,2.8l1.4,1.1l-1.2,0.8l-0.9,1.7l-1.8,0.1l-0.5-1.4l-1-0.9l-1.5,0.9l-2.2,2.5l3.9,0.1l5.8,2.3h3.8l1.5,2.3h3.8l2.8-1.3
	l6.3,2.3l3.8,0.5l2.3-1.8l1.8-2.3l0.3-3.5l-0.8-3l2-2h3.3v3.3l3.5,1.3l1-2.8l4.8-2.8l0.8-3.5l1.8-2l6.3-2.5l2.8,1.5l1.8-6.1l1.5-2.5
	l4,0.3l2.5-1.3l1-3l5.8-1.8l1-2.8l2.3-1.8l1.8-2.3l2.8,1.3l2.3,1.8l2.8,1l5.8-2.3h7.6l5.3-2.8l5.1,1.3l1.5,5.1l4.3,3.5l1.5,2.3
	l2.5,1.5l3.5,0.3l2.3,1.8l3,1L413,615l2.8-1.5l1.8-2l5.6,0.3l-0.5,3.8l2,3.3l2-2l3.3-0.8l2,2l3-0.3l2.8-1l3.5,0.3l2.8,1.5l3.5,0.5
	l1.3-2.5v-3.5l-0.8-3l-1.5-2.3L448.1,605.4L448.1,605.4L448.1,605.4z"/>
<path id="hualien_county" onclick="show('10')" sodipodi:nodetypes="csssssssssssscsssscssssssscsssssssssssssssssssssssssssssscsssssscssssssscsssssssssscsssssscsscssssssssssssssssscsssssssssssssssscssssssssssssssssssssssssssscssssssssssssssssssssscssssssssssscsssssssssssscssssssscsssssssssssscssssssssssssssssssssssssssscssssssssssssssssssssssssssssssssssssssccsssssssssssssssscsssssssssssssssssssssssssssssssssssssssssssssssssssssssssssssssscssssssssssssssssssssssssssssssssssssssssssssssssssssssssssssssssscsssssssssssssssssssssssssssssssssssssssssssscssssssssssssssssssssc" class="st1" d="
	M677.4,664.4l-3.4-0.9l-2.3-1.8l-3-0.8H665l-2.8,1l-4.3,3.5l-7.3,13.1l-0.3,0.3l0.5,4.5l2,2.3l3.3,1.8v0.3L644,706.1l-0.5,8.8
	l-1.8,2.3l-2.3,1.5l-1.3,2.5l-1.5,6.1l-2.3,1.8v3.8l-1.5,2.8l-0.3,2.8l-3,5.8l-4.3,3.5l-1,2.8l0.8,3.5v11.4l-1,2.8l-9.8,1.5
	l-2.5,1.8l-2-0.3l-0.3-3.5l-1.8-3.3l-2-1.8l-4.5-0.3l-1-0.8l-1.8-2.3l-3-1l-2.5-1.5V754l-3.8-5.3v-4.3l-1.3-2.8l-1.8-2.3l-5.1-3.3
	l-5.3,2.5l-0.5,1.3h-1l-2.8-1.3l-1.3-2.5l-3.5-4l-3.5-0.3l-5.3-3.3h-4.3l-1.3-2.5l-0.8-0.8l-3.8-9.1l0.3-3.8l-3.8-4.8l-0.8-2.5
	l0.8-3l-0.3-3.5L528.4,688l-3-0.8l1-3.5l1.8-2.5l3.3-1l-0.5-2.3l1.5-2.3l3.3-0.5l1.5-2.3v-7.1l-2.3-1.5l-0.5-1.6l1.3-1.1l3-0.8l3-2
	l3-0.8l0.8-3.5l-1-3l-2.3-1.8l1.8-2l0.8-3.3l2-2.3l2.3-1.5l0.8-3l2.3-1.5l3.5,0.3l2.8-1.3h3.8l1.3-0.5l2.5,1.5l3,0.8l4.8-4v-7.6
	l0.8-3l2.3-1.5l-2.3-6.3l2.5-1.3l3.8,1l2.8-1.3l1.5-2.3l3.3-1.5l4.5-0.3l3.8-8.3l1.3-10.4l1.3-2.5v-3.8l2-5.6v-9.3l-2.5-2.3
	l-0.3-3.5l0.8-2.8l-8.1-5.8l0.3-3.5l3.3-0.8l3-2.3v-1.5l-0.8-3l0.5-3.5l2.3-1.5l1-3.3l0.3-3.8l1-3l2-2.5l0.3-3.8l2.3-2.3l3-0.8
	l-0.5-5.6l-1.8-3l4.3-3.8l-0.3-3l-1-3.3v-3.8l0.8-2v-7.6l-2-2.5l-1-0.3v-3.5l6.1-12.9l0.3-7.3l2.3-2.3l2.5-1.3l1.5-2.5l2.5-1.3
	l2-3.5l0.8-2.5l0.3-3.5l-1.5-2.3l-3.5-0.5l-1-2.8l-1.8-2l-3.8-1.3l-0.8-1l-0.3-6.3l2.8-6.6l3-0.8l2-1.8l2.8-1.3l3.8-3.8h3.8l1.5-2.3
	l-1.8-5.6l2-1.5l0.9-1.8l-0.2-2.5l3.8-1.6l1.1-1.6l2.7,0.2l1.4-1.2l0.5-2.3l-0.9-4.6l1.2-2l2.3-0.9l1.6-1.1l1.8-4.1l1.4-1.6h2.7
	l1.8-1.2l1.4-1.8l2.1-4.3l0.7-7.3l0.9-2l2.3-1.2l1.3-1.5l12,7.7h8.1l3,1.3l4,0.5l8.1,5.6l8.3,1l3-0.8l-3-2.5l0.8-3l3.3-0.8l2.3-1.5
	l2.3,1l2-1.8l-0.8-1.5l-2-1.8l0.3-3.3l2-0.8l4.3,3.8l4.8,1.5l4.5,3.5l9.1,3.8l7.3,0.5l8.1,4l4.2,0.5l-0.1,1.3l-0.6,1.2l-1.5,0.7
	l-0.9,1.5l-2.2,2l-2.7,3.9l-0.1,5.6l-1.2,0.9l-1.1,2.7l-1.5,0.6l-0.8,1.9l-0.2,0.1l-3.5,0.4l-3,5.4l-1.2,1l-1.7,0.2l-3.3,2.9
	l-1.5,0.4l-0.9,1.1l-1.2,0.8l-3.9,5.3l-1,3.3v5.7l2.4,4.3l-0.8,0.8l-0.5,5.2l-0.2,0.5l-0.4-0.2l-1.4,2.4l-1.4,0.5l-3.2,3.7l-1.5,0.8
	l-4.3,4.7l-0.6,1.4l0.1,11.9l0.6,1.2l0.5,3.3l7.2,7.5v1.9l-1,3.4l-1.4-0.4l-0.4,1.7l0.7,1.2l-1.5,0.5l-1.1,2.5h1.6l-0.8,3l-1.9,0.1
	l-0.8-1.1h-1.5l-1,0.9l-0.6,1.7l-1.1,1.1l-1,3l1.4,3l0.1,5.6l-1,3.4l-0.1,5.3l-0.5,1.7l-0.1,5.6l-0.6,1.2l-0.4,3.4l-1.9,4.3v1.9
	l-0.6,1.4l-0.2,1.6l-1.9,3.9l-0.3,1.8l-3.3,4.8l-0.6,2.1v10.5l0.5,1.4l-1.4,6.4L697,567l-1.7,1.1v1.8l-0.6,1.4l-0.1,1.8l0.9,0.6
	l0.8,2.5l-0.9,1.1l-0.2,1.7l-0.6,1.2l-0.9,6.9l-0.9,1l0.1,1.2l0.8,1.2l-1,1.1l-1.5,0.6l-0.5,3.4l-1.3,1.5l-0.1,12.8l-0.9,1.8
	l-0.1,3.9l-0.9,3l-1.4,1.2l-0.4,1.7l-1.6,2.4l-0.2,1.9l-1.2,3.3l-0.1,3.7l-0.9,1.4l-0.2,2.1l0.5,0.4l0.6,1.7v3.8l1.7,2.5l-0.1,3.7
	l-0.5,1.5l-1,1.1l-1.5,0.6l-1.8,0.1l0.4,0.5l1.7,1l-0.8,1.5v1.9l-0.9,3.3v1.9l-0.6,1.5L677.4,664.4L677.4,664.4L677.4,664.4z"/>
<path id="nantouCountry" onclick="show('14')"sodipodi:nodetypes="csssssssssssssscsssssssssssssssssscsssssssssscsssssssssssssssssssssscsscsssscsssssssssssssssscssssssssssssssssssssssssssscssssssssssssssssssssscssssssssssscsssssssssssscssssssscsssssssssssscsssssssssssscssssssssssssssssssssssssssssssssssscssssssssssssssssssssssssscssssssssssssssssssssssssssssssssssssssssssssssssccsssscsssssssssssssssssssssssssssssssssz" class="st1" d="
	M420,547.3l5.1,10.9l-0.5,7.1l-2.8-0.5l-0.8,3l0.3,7.3l1.5,2.5l0.3,3.5l-1.5,6.1l-0.8,1.3l-0.3,0.3l-2,5.8l0.3,7.3l4.8-3.5l0.8,3
	l1.5,2.8l2.3,1.5l3.5,0.3l3-0.5l0.8-3l3.3,0.8l2.8-0.5l1-2.8l3.3,0.5l2.3,2l0.1,3l6.5-0.7l11.6,4.3h3.8l3.3,0.8l1.3,2.5l0.3,8.6
	l-0.8,3.3l-2.8,2.3v3.8l1.5,2.5l2.3,2l0.5,7.3l2.5,5.8l2,2.3l11.4,1.3l5.6-2.3l11.1,1l2.8,1l11.9,0.8l6.3,2.3h0.5l2.5,1.8l1.3,6.3
	l1,0.5l1.3-1.3l3-0.8l3-2l3-0.8l0.8-3.5l-1-3l-2.3-1.8l1.8-2l0.8-3.3l2-2.3l2.3-1.5l0.8-3l2.3-1.5l3.5,0.3l2.8-1.3h3.8l1.3-0.5
	l2.5,1.5l3,0.8l4.8-4v-7.6l0.8-3l2.3-1.5l-2.3-6.3l2.5-1.3l3.8,1l2.8-1.3l1.5-2.3l3.3-1.5l4.5-0.3l3.8-8.3l1.3-10.4l1.3-2.5v-3.8
	l2-5.6V569l-2.5-2.3l-0.3-3.5l0.8-2.8l-8.1-5.8l0.3-3.5l3.3-0.8l3-2.3v-1.5l-0.8-3l0.5-3.5l2.3-1.5l1-3.3l0.3-3.8l1-3l2-2.5l0.3-3.8
	l2.3-2.3l3-0.8l-0.5-5.6l-1.8-3l4.3-3.8l-0.3-3l-1-3.3v-3.8l0.8-2v-7.6l-2-2.5l-1-0.3v-3.5l6.1-12.9l0.3-7.3l2.3-2.3l2.5-1.3
	l1.5-2.5l2.5-1.3l2-3.5l0.8-2.5l0.3-3.5l-1.5-2.3l-3.5-0.5l-1-2.8l-1.8-2l-3.8-1.3l-0.8-1l-0.3-6.3l2.8-6.6l3-0.8l2-1.8l2.8-1.3
	l3.8-3.8h3.8l1.5-2.3l-1.7-5.6l-1.4-0.8l-4.8-1.1l-1.2-1.2l-4.8-0.5l-1.1,1.6l-5.2-0.4l-2.1-0.7l-1.1-1.6l-3.2-2.3h-0.9l-2.3,3.8
	l-0.5,2.1l-1.2,2.1l-2,0.7l-2.5-0.9l-1.6-1.1l-4.1,1.8h-2.7l-1.8,1.1l-0.9,1.8l-4.3-1.2l-1.2-1.4l-2-0.9l-1.6,1.1l-1.2,1.6l-2.5,0.2
	l-0.7,2l-1.2,2l-1.4,1.2l-10.5,0.2l-1.8,0.9l-0.5,2.1l-1.2,2l-1.8,1.1l-1.2,1.6l-2,1.2l-1.2,2l-3.9,2h-4.1l-1.6,1.1l-4.3-0.5
	l-2.5,0.5l-1.4,1.4l-2,6.3l-2.7,2.7l-1.8,1.1l-5.2,0.2l-2.3-0.5l-1.4-1.2l-2.3,0.4l-6.1,5.2l-2.5,0.5L504,444l-2.9-1.4l-0.4-0.5
	l-1.6-1.4L498,445l-0.9,1.8l-1.4,1.2l-0.7,1.6l-1.1-0.5v-5.4l-1.6-1.4l-4.6-0.9l-1.1-1.6l-2.3-0.7l-1.6,1.1l-3.8,7.5l0.4,6.6
	l-1.2,1.6l-4.5,1.2l-3.2,3.2l-3.8,9.8l-6.4,7l-4.3,1.4l-2.1,0.2l-1.8-1.6l-2.5-0.5h-5.4l-2.1,0.5l-9-3.3l-3.9,2.3h-7.6l-0.3,3.8
	l0.5,0.3l1.8,2l1.3,2.8l-0.3,3.5l-1.3,2.5l-2,1.8l-1.5,2.3l1,5.6l-0.5,2.3l0.5,2.8l-1.3,9.6l-1.3,2.5l-0.5,3.3l-1.5,2.5l1.8,2
	l-1.3,2.5l-0.3,2.3l7.3,7.8l2.5,1.3h3.3l2.5-1.3l2,0.5v3.3l-1.3,2.5l-2,1.8l-5.8,1.8L420,547.3L420,547.3L420,547.3z"/>
<path id="taitungCountry" onclick="show('12')" sodipodi:nodetypes="cssscsssssssscsssssssssssssssssssssssssssssssssssssssscssssssssssssssssssssssssssssssssscssscssssssssssssssssssssssssssscsssssssssssssssssssssssssssssssssssssssssssssssscsssssssssssssssssssscssssssssssssssssssssssssssssssscssssssssssssssssssssssssssssssssssssssssssssssssssssssscsssssssssssssssssssssssssccsssssssssscssssscssssssssssscssscsssssssscssssssssssssssssscssssscssssssscscssssssssssssssssssssssscsssssssssssssssssssssscssssssssssscsssssssssssscsssssscsssssssssscssssssscsssssscsssssssssssssssssssssssssssssscssssssscsssscssssssssssssc" class="st1" d="
	M677.3,664.5l-2.2,6.8v1.9l-1.4,0.9l-1.8,7l-0.1,5.8l-1.8,3.8l0.1,5.5l-1.1,5.6l-1.5,1h-1.9l-1.5,0.4l-1.2,1l-1.1,3.2l-0.8,1.2
	l-1.4,1.3l-0.6,1.4l-0.1,1.7l-1.2,1.1l-0.4,4.1l-1,1.2l-2.4,9.7l0.9,1.1l0.5,1.4l-0.8,1.2L653,734l-1.4-0.2l-0.9-1.4l-1.1,0.5l1,1
	l0.1,1.4l-3,2l0.3,7.9l1.9,3.8l0.4,1.8l-0.2,3.7l-1.4,1.4l0.1,5.4l3,3.2l-0.9,2.9l-3.7,0.1l-1.2,1l-2.2,4.2l-1.3,0.6l-3.8,0.1
	l-0.9,1.2l-1.4,0.8v1.9l-0.8,1.2v1.9l-2,2.9l-1.4,4.9l-1,1.4l-0.9,5.7l-1.2,1.7l-0.2,1.6l-1.1,0.8l-1,1.1l-1,2.9l-1,1.6l-1.3,5.1
	l-0.8,0.9l-0.5,1.5v1.9l-3.3,3.4l-0.5,1.4l-1.8,0.1l-1.1,1l-0.9,1.5l-0.7,0.2l-0.2,3.2l-3.4,7.4l-2.2,2L606,839l-0.6,3.2l-1.2,1
	l-1.5,0.4l-2.4,2.5l-0.1,3l-3.2-0.8l-1.4,0.5l-3.4,0.5l-5.8,4.8l-0.8,1.2l-0.2,1.6l0.6,1.3l1.8,2l0.4,1.3h-1.9l-0.8,1.2l0.6,1.2
	l1.3,0.7l1,1.1l-0.4,1.8l1.1,2.8l-0.5,1.7l-2.1,1.9l-1.7,0.2l-1.4,1.4l-1.3,8l-2.2,2l-2.8,1.2l-1.2,1l-0.8,1.2l-2.5,2l-0.8,1.1
	l-1.1,0.8l-1.5,0.6l-3.8,4.5l-2.7,1.5l-1.5,0.4l-1,0.9l-1.4,0.6l-1.9,0.3l-1,1l-1.8,0.1l-0.9,1.1l-2.4,1.4l-1,1l-2.7,1.2l-0.4,1.5
	l-1,1.2l-1.8,0.1l-1.1,1l-4.1,1.8l-1.1,1l-1.7,2.6l-0.9,3.2l-1.1,1.3l-0.2,1.6l-0.9,1.2l-0.1,1.8l-0.8,1.5l0.1,1.8l-0.2,0.6
	l-0.2,5.2l-0.8,1.5l-0.1,1.4l-2,2.8l-3.5,3.2l-0.9,1.3l-1.7,0.9l-0.8,1.2l-0.2,1.7l-0.9,1.2l-0.1,1.8l-0.7,1.6v1.9l-1.2,0.8v2.5
	l-2.9,6.8v1.9l-0.9,0.9v3.8l-2.2,4.2l0.1,2.1l-1.2,1.7l-0.5,3.5l-0.9,1.1l-0.2,3.5l-1,1.3l-0.4,1.8l-1.9,2.5l-0.5,1.4l-0.9,1.1
	l-3.6,10.1l-0.9,1.3l-0.5,5l-2.5,2.5l-2.9,9.1v3.5l-0.6,1.4l0.2,5.4l1.3,1.7v7.8l0.9,3.2l0.1,4.6l-3.5,1.2l-2,1.8l-3.3,1.3l-2.8-4.8
	l-3-0.8h-4l-1.3-2.8l-2.8-1l-2.3-1.5l-4.3,0.3l-0.5-2.3l0.8-3.3l1.8-1l-2.8-1l-1-2.5l-4.8-2.8l1.8-2.3l2.5-1.3l-0.3-7.6l-2.5-1.5
	l-1.3-2.5h-2.8l-3.8-4l-3.5-1.8l4.8-14.6l6.6-1l1.3-2.8l0.2-3.2l-2.8-2l-2.5-5.3l-4-2.5l-0.3-3l-1-3l4.3-3.3V967l-4-8.1l-0.5-4.3
	l-1.8-1l-1-3l0.5-3.5l2.8-5.1l-1.3-2.8l1.5-2.3l1-2.8l-0.3-3.5l1-2.5l2-2l0.8-3l1.8-2l0.3-1l4-5.6l0.3-3.5l1.8-2.3l0.3-2.5l3.3,0.5
	l3.5-1.8l6.1-1.3l3-6.3l11.1-0.5l2-2.3l0.3-3.5l1.8-2l0.5-9.9l2-2l-1-2.3V871l-1-3.3l-2.5-1.3l-3.3-0.3l-2.8-2.5l-0.8-1.5l-0.8-3
	v-3.8l0.5-1l0.7-6.8l-2.9-3.9l-5.4-0.4l-2.9-8.6l0.4-5l-1.4-1.4l-1.8-3.9V819l1.1-4.3l10-12.9l0.7-1.8v-3.9l6.4-4.6l-1.4-4.3
	l-2.5-2.5l1.8-4.3l3.6-3.9L494,754l3.2-2.1l2.1-5l3.6-1.8l-1.1-3.9v-3.9l1.4-3.9l-0.4-1.8l-1.1-0.7l2.9-3.6l3.6-1.4l6.8-5.7l5-6.4
	h3.9l7.9-2.1l2.9-2.9l8.4-3.6l0.9,2.5l3.8,4.8l-0.3,3.8l3.8,9.1l0.8,0.8l1.3,2.5h4.3l5.3,3.3l3.5,0.3l3.5,4l1.3,2.5l2.8,1.3h1
	l0.5-1.3l5.3-2.5l5.1,3.3l1.8,2.3l1.3,2.8v4.3l3.8,5.3v2.8l2.5,1.5l3,1l1.8,2.3l1,0.8l4.5,0.3l2,1.8l1.8,3.3l0.3,3.5l2,0.3l2.5-1.8
	l9.8-1.5l1-2.8v-11.4l-0.8-3.5l1-2.8l4.3-3.5l3-5.8l0.3-2.8l1.5-2.8v-3.8l2.3-1.8l1.5-6.1l1.3-2.5l2.3-1.5l1.8-2.3l0.5-8.8
	l12.1-18.4v-0.3l-3.3-1.8l-2-2.3l-0.5-4.5l0.3-0.3l7.3-13.1l4.3-3.5l2.8-1h3.8l3,0.8l2.3,1.8L677.3,664.5L677.3,664.5L677.3,664.5z"
	/>
<path id="tainanCity" onclick="show('6')"sodipodi:nodetypes="cccccccccccccccccccccccccccccccccccccccccccccccccccccccccccccccccccccccccccccccccccccccccccccccccccccccccccccccccccccccccccccccccccccccccccccccccccccccccccccccccccccccccccccccccccccccccccccccccccccccccccc" class="st1" d="
	M359.7,669.8l-0.2,0.5l-2.3,1.5l-3.3,0.2l-2-2l-3.3,0.5l-5.3,2.5h-7.6l-6,3.5l-0.3,0.2l-1.5,2.5l-6.3-0.3l0.2,3l-7.1,0.5l-0.5,3.3
	l-1.2,2.5l-1.8,1.5l-2.5-1.5l-2,2l1,2.8l-0.5,1.8l-9.6,4.8l-0.8,3l-3.3,4.8l-3,1.2l-4.6-1.2l-1.2-2v2.8l-2.5-0.2l-2.3-2l-1-3
	l-3.8-0.8l-2.8-1.8l-0.8-1l-7.2-1.3l-3.9,6.8l0.6,1.3l1,0.1l-0.6,1.9l-1.3,0.9l-0.2,1.8l2.8,1.7l1.2,0.2l1.6-0.5l-2.2,3.2l-3.4,1.2
	L259,718l0.2,1.8l0.8,1.5l-2.5,2.4l-0.4,1.7l-0.8,1.4l-2.4-0.6l-0.6,1.3l-0.8,3.4l0.1,3.8l-4.9,9.2l-0.5,3.5l-1.5,2.5l1.1-1.4
	l1.5-0.6l1.5-0.1l0.6,8l1.2,0.9l1.5,0.6l-0.9,5.3l-3.3,1.4h-0.2l-3.5,1.2l-3.2,2.9l-3.3,1.5l-0.2,3.5l0.2,0.5l0.2,3.7l0.8,0.9h1.9
	l-0.1,5.9l0.8,2.4l2.1,2.5l0.3,0.8l1.9-0.7l1.3-0.9l1-1.1l0.3,1.6l-0.2,1.8l4.7,2.8l0.9,0.2l1.8,1.6l3.2,1.7l3.9,4.2l1.5,0.8
	l5.3,4.9l0.1,0.5l3.4,3.3l2.4,3.7l1.6-0.4l2.3-2.1l1.4-0.8l-1,2.2l-0.9,1.1v1.3l3.3,0.9l-1.7,1.4l-1.9-0.1l-1-1.4l-0.9-0.5l0.8,1.9
	l1.2,1.5l0.5,1.7l-0.5,9.6l-0.5,1.4l1,2l1.3-0.8l2-2l1.5-0.6h0.1l8.5,3.1l2.5-1.3l1.8,1l3.8,4h3.5l0.5-0.8l2.8,1.2l2,0.2l1.5-2
	l17.9,4.1l3.8-0.2l6.3-5.8l1.8-2.5l3-1l3.5-0.2l2.5,1.5h3l1.5-6.3l1.5-0.8l1-1.3l0.5-3.3l3.8-8.8l3-0.8l1-3l0.2-3.5l5.6-0.2l0.2-3.5
	l9.1-6.6l3.5-5.6l10.4-7.1l2.2-2.5l3.8-2.3l0.5-3l0.2-0.2l1.2-0.8l0.5-3.5l1.3-2.5l0.2-3.5l5.6-6.8l1.8-0.2l8.1-10.9l0.2-3.8l4-5.1
	l0.8-3l-2.2-1.8l-0.3-0.5l-1,0.8l-2.5-1.2l-6.3,1.2l-3-1l-3.5-2.5l-3.8,5.6l-3,0.8l-3.3-0.2l-4.3-3l-6.1-1.8l-1-2.5l3.3-4.8
	l-0.8-2.5l-2-3.3l-0.5-2.5l1.3-2.5l-1-2.8l-0.2-3.5l1.5-2.8l2.3-1.8l0.2-3l-1-2.8l-3.5-0.2l-3.8-1.2l-1-2.3l2.5-1.8l-0.2-3.3
	l-7.8-0.5v-3.3l2.5-1.8l1.5-2.3l-2-1.8l-2.2,1.3l-3-0.8l-2.5-2l-3.3-1l-1.8-2.3L359.7,669.8L359.7,669.8z M293.8,779.9l6.3,2.8l0,0
	L293.8,779.9L293.8,779.9z"/>
<path id="kaohsiungCity" onclick="show('15')"sodipodi:nodetypes="cccccccccccccccccccccccccccccccccccccccccccccccccccccccccccccccccccccccccccccccccccccccccccccccccccccccccccccccccccccccccccccccccccccccccccccccccccccccccccccccccccccccccccccccccccccccccccccccccccccccccccccccccccccccccccccccccccccccccccccccccccccccccccccccccccccccc" class="st1" d="
	M335.4,964.9l6.8,5.6l1.8,0.8l2.8,2.5l5.4,1.6l0.2-0.6l-0.9-14.5l0.9-2.9l0.9-1.1l1.8,0.4l2.5-2.2l2-5.8l0.3-3.5l1.8-6.1v-3.8
	l-3.5-4.3l0.3-18.2l2-6.1l1.8-2.3l1.8-6.8l-0.3-4.5l0.8-1.3l-0.3-15.2l1.3-2.8l0.5-3.3l1.3-2.5l1.5-9.8l2.5-1.3l1.8,0.8l4.5,0.3
	l1.5,2.3h3.8l2.8-1.3l6.1,1.5l3.5-0.3l2.3-1.8l2.5-3.3l0.3-1.3l4-3.3l1.3-0.5l6.6-4.5l3.5-0.3l2.8-2l3-0.8l3,1.3l1.8,2v3.8l2.8,1.3
	h2.8l1-1l3-0.8l3.3-4.8l3-0.8h3.8l8.6,5.3l6.3,7.6l2.8,1.5l2.8-1.5l1.8-2.3l5.1-2.5l1.5-2.3h3.3l1,0.3l2.5,1.3l0.3,1.3l2.3-0.8
	l4.5,3l0.7-6.8l-2.9-3.9l-5.4-0.4l-2.9-8.6l0.4-5l-1.4-1.4l-1.8-3.9v-5.4l1.1-4.3l10-12.9l0.7-1.8V796l6.4-4.6l-1.4-4.3l-2.5-2.5
	l1.8-4.3l3.6-3.9l-1.1-22.5l3.2-2.1l2.1-5l3.6-1.8l-1.1-3.9v-3.9l1.4-3.9l-0.4-1.8l-1.1-0.7l2.9-3.6l3.6-1.4l6.8-5.7l5-6.4h3.9
	l7.9-2.1l2.9-2.9l8.5-3.6l0.8-3l-0.3-3.5L528.6,688l-3-0.8l1-3.5l1.8-2.5l3.3-1l-0.5-2.3l1.5-2.3l3.3-0.5l1.5-2.3v-7.1l-2.3-1.5
	l-0.6-1.7l-0.9-0.3l-1.3-6.3l-2.5-1.8h-0.5l-9.9-2.8l-1,0.3l-2.5,1.3l-6.6,1l-2.3,1.5l-6.3,1.3l-4.3,3.5l-1.5,2.5l-3,1.3l-2.3,1.8
	l-3.3,0.5l-2.3,2.5l-1.8,4.3l-1.8,1.5l-1,2.8l-1.8,2l-0.3,3.5l-2.8,1H471l-2,2l-1.5,2.5l-4,4l-7.1,0.5l-2.3,5.8l-5.1,2.5l-1,2.8
	l-6.6,0.5l-1.3,6.6l-8.1-0.3l-2.3-2l-7.8-0.3l-1.3,11.6l1.3,2.8l2,2.5v3.8l-1.1,1.1l0,0l0.3,0.4l2.3,1.8l-0.8,3l-4,5.1l-0.3,3.8
	l-8.1,10.9l-1.8,0.3l-5.6,6.8l-0.3,3.5l-1.3,2.5l-0.5,3.5l-1.3,0.8l-0.3,0.3l-0.5,3l-15.9,12l-3.5,5.6l-9.1,6.6l-0.3,3.5l-5.6,0.3
	l-0.3,3.5l-1,3l-3,0.8l-3.8,8.8l-0.5,3.3l-1,1.3l-1.5,0.8l-1.5,6.3h-3l-2.5-1.5l-3.5,0.3l-3,1l-8.1,8.3l-3.8,0.3l-10.1-3.3l-7.8-0.8
	l-1.5,2l-2-0.3l-2.8-1.3l-0.5,0.8h-3.5l-3.8-4l-1.8-1l-2.5,1.3l-8.4-3.2l-1.7,0.7l-3.2,3l1.2,1.4l0.8,4.2l3,6.3v1.9h0.7l0.2-1.6
	l0.6-1.3l1.9-0.1l2.1,5.1l-0.2,1.6l-1.9,0.2l-1.4-0.9l-0.8-1.2l-0.4,0.9l0.1,1.8l0.8,2.2l0.1,1.8l1.8,3.4v1.4l8.9,21.1l0.2,1.8
	l1.5,3.4l1.4,1.8l3.1,6.6l1.7,3.8l4.5,5.6l-2.1,2.5l-3.9-3.9l2.5,6.1l-4,3.9l-0.2,4.2l-0.5,1.6l0.5,1.8l2.8,2.5l0.9,1.4v1.9l0.9,1
	l-0.1,1.9l-1.1,0.8l0.8,1.1l1.5,0.8l1.2,3.4l2.7,2.6l0.6,1.4l1.3,1.8l1.1,0.8l1,1.1l0.7,1.4l1,1l2.8,4.5l-2.7,0.5l-0.5,0.7v0.6
	l1.6,0.4l3.3-0.1l0.6,0.1l3.3,3.5l1.4,0.8l2.3,2.5l0.6,1.4l3.9,3.3L335.4,964.9"/>
<path id="chiayiCity" onclick="show('2')" class="st1" d="M510.6,650.3l-2.8-1l-11.1-1l-5.6,2.3l-11.4-1.3l-2-2.3l-2.5-5.8l-0.5-7.3l-2.3-2
	l-1.5-2.5v-3.8l2.8-2.3l0.8-3.3l-0.3-8.6l-1.3-2.5l-3.3-0.8h-3.8l-11.6-4.3l-6.4,0.6l-1.6,2.4l1.5,2.3l0.8,3v3.5l-1.3,2.5l-3.5-0.5
	l-2.8-1.5l-3.5-0.3l-2.8,1l-3,0.3l-2-2l-3.3,0.8l-2,2l-2-3.3l0.5-3.8l-5.6-0.3l-1.8,2l-2.8,1.5l-13.9-1.5l-3-1l-2.3-1.8l-3.5-0.3
	l-2.5-1.5l-1.5-2.3l-4.3-3.5l-1.5-5.1l-5.1-1l-5.3,2.8h-7.6l-5.8,2.3l-2.8-1l-2.3-1.8l-2.8-1.3l-1.8,2.3l-2.3,1.8l-1,2.8l-5.8,1.8
	l-1,3L334,610l-4-0.3l-1.5,2.5l-1.8,6.1l-2.8-1.5l-6.3,2.5l-1.8,2l-0.8,3.5l-4.8,2.8l-1,2.8l-3.5-1.3v-3.3h-3.3l-2,2l0.8,3l-0.3,3.5
	l-1.8,2.3l-2.3,1.8l-3.8-0.5l-6.3-2.3l-2.8,1.3h-3.8l-1.5-2.3H275l-5.8-2.3l-3.9-0.1l-1.6,0.9l-0.4,9.1l0.9,1.5l1.8,0.6l5.7-0.4
	l1.4,0.6v1.9l-0.8,1.4l-0.5,1.8l-0.9,1.1v2l-0.8,1.5l0.4,2l1.6,0.9h1.7l-2.2,4.2l-0.1,1.8l1.5,0.4v1.7l-1,3.2l0.1,1.9l0.8,1.5l1.2,1
	l1.4-1.2l0.6,0.9l0.2,3.5l-1,1.7l-1.3,5l-3.7,1.5l-1.4-0.1l-3,6.9l0.1,5l0.4,1.5h3.8l1.6,0.6l0.2,1.7l0,0l2.7,1.8l3.8,0.8l1,3l2.3,2
	l2.5,0.3v-2.8l1.3,2l4.5,1.3l3-1.3l3.3-4.8l0.8-3l9.6-4.8l0.5-1.8l-1-2.8l2-2l2.5,1.5l1.8-1.5l1.3-2.5l0.5-3.3l7.1-0.5l-0.3-3
	l6.3,0.3l1.5-2.5l0.3-0.3l6.1-3.5h7.6l5.3-2.5l3.3-0.5l2,2l3.3-0.3l2.3-1.5l0.3-0.5l3.8,1l1.8,2.3l3.3,1l2.5,2l3,0.8l2.3-1.3l2,1.8
	l-1.5,2.3l-2.5,1.8v3.3l7.8,0.5l0.3,3.3l-2.5,1.8l1,2.3l3.8,1.3l3.5,0.3l1,2.8l-0.3,3l-2.3,1.8L385,704l0.3,3.5l1,2.8l-1.3,2.5
	l0.5,2.5l2,3.3l0.8,2.5l-3.3,4.8l1,2.5l6.1,1.8l4.3,3l3.3,0.3l3-0.8l3.8-5.6l3.5,2.5l3,1l6.3-1.3l2.5,1.3l2-1.8V725l-2-2.5l-1.3-2.8
	l1.3-11.6l7.8,0.3l2.3,2l8.1,0.3l1.3-6.6l6.6-0.5l1-2.8l5.1-2.5l2.3-5.8l7.1-0.5l4-4l1.5-2.5l2-2h3.8l2.8-1l0.3-3.5l1.8-2l1-2.8
	l1.8-1.5l1.8-4.3l2.3-2.5l3.3-0.5l2.3-1.8l2.8-1.3l1.5-2.5l4.3-3.5l6.3-1.3l2.3-1.5l6.6-1l2.5-1.3l1.2-0.3L510.6,650.3z
	 M377.9,653.6l-0.8,2.5l-4.5-1.5l-2-1.8l-4.5,3.5l-1.3,2.5l-2.5,1.5l-2.5-1.3l-2-2.8l-1-2.8l-10.1-1.5l2-4.5l-3-3l-0.5-3.3l0,0l0,0
	l0,0l4.8-1.3l3,0.8l7.1-5.1l3-0.8l2.5,1.3l1.8,2.5l2,1.8l2.8-1l2.3,1.5l1.3,2.5l3,0.8l0.8,3l2,2L377.9,653.6z"/>
<g id="kinmenCountry" onclick="show('16')" transform="translate(15.390386,49.491395)">
	<path id="path2643" class="st0" d="M70.1,285.9l-0.8,0.6l-0.6,0.7l-2.5-0.4l-0.9,0.5l-0.5,1v2.8l-0.5,0.9l-0.1,1.3l-0.8,0.6H62
		l-0.9,0.5l0.3,1.4l0.6,0.9l-0.5,1l-0.8,0.8l-1,0.4h-0.4L60,300l2.6,0.2l0.5,1.2l1.3-0.1l2-2.7l1.1-0.3l1.2,0.3l0.6,0.8l1-0.5
		l0.6-0.9l-0.1-1.3l0.6-0.9l2.7-0.1l1.2-0.4l0.6-0.7l1.5-4.2l-0.2-1.2l-3-1.8l-0.7-0.8l-0.9-0.5l-1.3-0.3L70.1,285.9L70.1,285.9z"/>
	<path id="path2645" class="st0" d="M42.4,304.4l0.5,1.1l0.6,0.9l-0.4,0.7l1.4,0.1l0.9,0.5l0.8-0.6l-0.2-0.6l-1.4-0.1l-0.6-2.1
		L42.4,304.4L42.4,304.4L42.4,304.4z"/>
	<path id="path2647" class="st0" d="M41.1,308.1l-0.6,0.8l2.3,0.6l0.7-0.6L41.1,308.1L41.1,308.1z"/>
	
		<path id="path2651" sodipodi:nodetypes="csssssssssssssssssssssssscsssssssssssssssssssscssssssssssscssssssssssssssssssssscssssssssscsssssssssssssssssscsssssscsssssssssscsssssssssssscsssssssssssssscsssssssssssscssssssssssssssc" class="st0" d="
		M129.1,268l-0.4-1.3l-0.6-0.9v-1.4l-0.6-0.8l0.6-0.6h-1.2l0.1-0.7l-0.9-0.1l-0.7,0.2l-0.4-0.6l-1.6,1.7l-0.5-0.9l0.9-0.6l-0.8-0.6
		l-0.9,0.6l-0.6,0.8l1,0.8l0.7,1l-0.4,1.1l-1.2,0.2l-1.7,1.2l-1.2,0.2l-1.2-0.1l-0.5,0.3l-0.3,0.9l0.5,0.7l0.1,1.3l1.3-1.4l1,0.5
		h1.4l-0.1,0.7h-1.4l0.9,0.8l0.5,0.9l-0.8,0.6v1.4l-0.9-0.3l-1.2-1.7l-0.7-0.6l-0.2,0.9l0.6,0.9v0.3l-0.9,1l-0.9,0.6l-0.6,0.8
		l-0.9,0.5H113l1.3,1.2l-0.4,0.5l0.6,2.4l-0.3,0.7h-0.6l-1.7,1.4l-0.6,0.9l-8.1-1.1l-10.8-7.8l-1.2-0.3l-0.4-0.3l-0.6,0.7l-1.3,0.2
		l-2.1,2.1l-1.2,0.2l-2,3.8l2.2,1.3l1.2,0.3l-0.2-0.9l-0.7-0.8l0.9-0.5l2.8,0.1l0.5-1.1l0.9-0.6l0.7,0.8l-0.1,1.7l-0.7,0.7l-2.4,0.5
		l-0.5,1.2v1.8l0.4,0.3l0.7,1.2l0.7,2.4v2.8l0.2,0.7l1.6,0.2l0.6,0.7l-0.1,1.3l-1,0.4l-0.6-1.7l-0.5,0.9l-2.2,0.3l-0.1,2.3l-0.8,0.6
		l-4,0.1l-0.6-0.5l0.1-1.3l-0.8,1.7l-1.1-0.2l-0.3,0.9l1,0.7l0.9,0.4l1.7,2.2l1.5,1.2l0.6,1l2.7,0.2l1,0.5l0.6,1.1l1.3,0.5l1.5,0.2
		l2,1.3l0.5-0.8l1.6-0.3l0.4-1l0.7-0.6l0.6-2.4l3-4.3l0.7-0.6l0.6-0.9l0.8-0.6l0.2-0.5l1.2-0.2l0.8-0.6l1.2-0.3l0.7-0.6l0.9-0.5
		l1.3-0.1l2-0.8l7.9-0.6l1.5,0.6l1.7,1.4l0.9,0.5h1.4l2.3,0.9l2.4,2.4l-0.1,1.1l-0.6,0.8l-0.8,0.6l-0.6,0.2l1.1,0.5h1.4l1-0.4
		l0.8-0.6l1.2-0.3l0.6-0.9l2.3-0.6l0.4-1l-0.5-0.8l0.3-1l0.8-0.4l1.4,0.3l0.6-0.7l0.4-0.8l-1.4-1.7l-0.2-1l1.8-1.1l1-0.1l0.6,0.6
		l1-0.8l-0.4-0.8l0.1-0.9l0.5-0.7l-0.9-0.5h-1.4l-0.3-0.7l-0.7-0.7l-0.7-3.4v-2.2l1.5-0.9l0.4-1.1l-0.6-0.7l-2,0.7l-0.9-0.3
		l-0.5-0.9l-0.6-2.3l0.2-1.2l-0.6-0.6l-0.9-0.5l-0.2-3.4L129.1,268L129.1,268L129.1,268z"/>
	<path id="path2655" class="st0" d="M131.4,263l-1.1,0.4l0.5,0.5h1.4L131.4,263L131.4,263L131.4,263z"/>
	<path id="path2657" class="st0" d="M137.8,298.1l-0.6,0.6l1.3-0.1L137.8,298.1L137.8,298.1z"/>
</g>
<g id="lienchiangCountry" onclick="show('21')" transform="translate(28.007306,18.540465)">
	<path id="path2671" class="st0" d="M33.3,188.4h6l-2,3.2l-4.4-0.4L33.3,188.4L33.3,188.4z"/>
	<path id="path2673" sodipodi:nodetypes="cssssssc" class="st0" d="M48.4,190.3l-4,9.5l1.6-0.4l7.6-5.2l-4-1.6L48.4,190.3
		L48.4,190.3z"/>
	<path id="path2675" sodipodi:nodetypes="csssssssssssc" class="st0" d="M28.5,121.2l-0.4,4.4l0.8,4.8l-0.8,2.8l6.4,0.8l4.8-1.2
		l6.4-5.2l-2.8-3.6l-3.2,2.8l-4.4,0.8l-2.4-3.2L28.5,121.2L28.5,121.2z"/>
	<path id="path2677" class="st0" d="M48,123.6l1.2,2.4L48,123.6L48,123.6z"/>
	<path id="path2679" sodipodi:nodetypes="cssssssssssssc" class="st0" d="M46.4,105.7l0.4,9.5l0.8-4.4l3.2-2l4.8-0.4l3.6-2.4
		l2.8,3.2l0.8-2l-3.6-6L46.4,105.7L46.4,105.7z"/>
	<path id="path2681" sodipodi:nodetypes="csssc" class="st0" d="M52.7,85l-2.4,4.8l1.7,0.7l1.9-1.5L52.7,85L52.7,85z"/>
	<path id="path2683" class="st0" d="M58.7,95.7l-2.8,2.8l4-0.8L58.7,95.7L58.7,95.7z"/>
	<path id="path2685" class="st0" d="M223.7,55l-0.1,1.5l-0.8,0.9l-0.4,1.2l1.2,0.8l4.1-1.3l1.5-2.2l1.2,0.3l1.3-0.4l-0.6-1.1
		l-1.4-0.5l-2-1.8l-1.1-0.2l-0.7,1.7l-1,1.2L223.7,55L223.7,55L223.7,55z"/>
	<path id="path2687" class="st0" d="M220.5,50.6l-2.4,2.1l0.2,0.7l4.2,0.3l-0.2-1.2L220.5,50.6L220.5,50.6z"/>
</g>
</svg>
